<?xml version="1.0" encoding="UTF-8" standalone="no"?><svg xmlns="http://www.w3.org/2000/svg" xmlns:xlink="http://www.w3.org/1999/xlink" clip-rule="evenodd" stroke-miterlimit="10" viewBox="0 0 1024 768"><desc>SVG generated by Keynote</desc><defs></defs><g transform="matrix(1.00, 0.00, -0.00, -1.00, 0.0, 768.0)"><path d="M 0.0 768.0 L 1024.0 768.0 L 1024.0 0.0 L 0.0 0.0 Z M 0.0 768.0 " fill="#E6F5CE"></path><g><clipPath id="clip0x600000aaf180"><path d="M 105.8 570.4 C 69.7 570.4 40.4 541.1 40.4 505.0 L 40.4 263.0 C 40.4 226.9 69.7 197.6 105.8 197.6 L 347.8 197.6 C 383.9 197.6 413.2 226.9 413.2 263.0 L 413.2 505.0 C 413.2 541.1 383.9 570.4 347.8 570.4 L 105.8 570.4 Z M 105.8 570.4 "></path></clipPath><g clip-path="url(#clip0x600000aaf180)"><g><clipPath id="clip0x600000aaf300"><path d="M 40.4 197.6 L 413.2 197.6 L 413.2 570.4 L 40.4 570.4 Z M 40.4 197.6 "></path></clipPath><g clip-path="url(#clip0x600000aaf300)"><path d="M 38.6 572.2 L 415.0 572.2 L 415.0 195.8 L 38.6 195.8 Z M 38.6 572.2 " fill="#F4F5F4"></path></g></g></g></g><g><clipPath id="clip0x600000aaf540"><path d="M 196.2 392.2 L 178.6 458.8 L 178.3 458.8 L 161.5 392.2 L 133.5 392.2 L 102.2 491.5 L 130.8 491.5 L 148.9 424.1 L 149.3 424.1 L 165.7 491.5 L 192.0 491.5 L 208.7 424.2 L 209.1 424.2 L 227.2 491.5 L 255.0 491.5 L 224.0 392.2 Z M 317.5 452.5 C 316.3 459.4 314.0 464.6 310.8 468.2 C 307.5 471.8 302.6 473.6 296.0 473.6 C 291.7 473.6 288.1 472.9 285.2 471.4 C 282.4 469.9 280.1 468.1 278.4 465.9 C 276.7 463.7 275.5 461.4 274.8 459.0 C 274.1 456.6 273.6 454.4 273.5 452.5 Z M 273.5 435.2 C 273.9 426.4 276.1 420.0 280.2 416.0 C 284.3 412.0 290.1 410.0 297.7 410.0 C 303.2 410.0 307.9 411.4 311.8 414.2 C 315.8 416.9 318.2 419.8 319.1 422.9 L 342.9 422.9 C 339.1 411.0 333.2 402.5 325.3 397.4 C 317.5 392.2 307.9 389.7 296.8 389.7 C 289.0 389.7 282.0 390.9 275.8 393.4 C 269.6 395.9 264.3 399.5 260.0 404.1 C 255.7 408.7 252.3 414.2 250.0 420.6 C 247.6 427.0 246.5 434.0 246.5 441.7 C 246.5 449.2 247.7 456.1 250.1 462.5 C 252.5 468.9 255.9 474.4 260.4 479.1 C 264.8 483.8 270.1 487.4 276.3 490.1 C 282.4 492.8 289.3 494.2 296.8 494.2 C 305.1 494.2 312.4 492.5 318.7 489.3 C 324.9 486.0 330.0 481.6 334.0 476.1 C 338.0 470.6 340.9 464.3 342.7 457.3 C 344.5 450.2 345.1 442.9 344.6 435.2 Z M 273.5 435.2 "></path></clipPath><g clip-path="url(#clip0x600000aaf540)"><g><clipPath id="clip0x600000aaf6c0"><path d="M 40.4 197.6 L 413.2 197.6 L 413.2 570.4 L 40.4 570.4 Z M 40.4 197.6 "></path></clipPath><g clip-path="url(#clip0x600000aaf6c0)"><path d="M 100.4 496.0 L 346.6 496.0 L 346.6 387.9 L 100.4 387.9 Z M 100.4 496.0 " fill="#545554"></path></g></g></g></g><g><clipPath id="clip0x600000aafae0"><path d="M 257.9 348.4 L 257.9 367.5 L 281.1 367.5 L 281.1 348.4 Z M 257.9 342.3 L 281.1 342.3 L 281.1 258.2 L 257.9 258.2 Z M 322.3 367.5 L 322.3 342.3 L 339.4 342.3 L 339.4 326.8 L 322.3 326.8 L 322.3 285.2 C 322.3 281.3 323.0 278.7 324.3 277.4 C 325.6 276.1 328.2 275.4 332.2 275.4 C 333.5 275.4 334.7 275.5 335.9 275.6 C 337.1 275.7 338.3 275.9 339.4 276.1 L 339.4 258.2 C 337.4 257.9 335.2 257.7 332.8 257.5 C 330.4 257.4 328.1 257.4 325.8 257.4 C 322.2 257.4 318.8 257.6 315.5 258.1 C 312.3 258.6 309.5 259.6 307.0 261.0 C 304.6 262.4 302.6 264.4 301.2 267.0 C 299.8 269.6 299.1 273.0 299.1 277.2 L 299.1 326.8 L 285.0 326.8 L 285.0 342.3 L 299.1 342.3 L 299.1 367.5 Z M 322.3 367.5 "></path></clipPath><g clip-path="url(#clip0x600000aafae0)"><g><clipPath id="clip0x600000aaf960"><path d="M 40.4 197.6 L 413.2 197.6 L 413.2 570.4 L 40.4 570.4 Z M 40.4 197.6 "></path></clipPath><g clip-path="url(#clip0x600000aaf960)"><path d="M 256.0 369.3 L 341.2 369.3 L 341.2 255.6 L 256.0 255.6 Z M 256.0 369.3 " fill="#545554"></path></g></g></g></g><g><clipPath id="clip0x600000aafcc0"><path d="M 178.3 353.8 C 178.3 353.8 161.6 370.2 145.7 370.2 C 129.9 370.2 112.3 353.2 112.3 333.2 C 112.3 313.1 123.1 285.1 178.3 254.4 C 231.4 285.1 244.4 312.5 244.4 332.9 C 244.4 353.3 225.8 368.9 210.1 368.9 C 194.4 368.9 178.3 353.8 178.3 353.8 Z M 178.3 353.8 "></path></clipPath><g clip-path="url(#clip0x600000aafcc0)"><g><clipPath id="clip0x600000aafe40"><path d="M 40.4 197.6 L 413.2 197.6 L 413.2 570.4 L 40.4 570.4 Z M 40.4 197.6 "></path></clipPath><g clip-path="url(#clip0x600000aafe40)"><path d="M 110.5 372.0 L 246.2 372.0 L 246.2 252.6 L 110.5 252.6 Z M 110.5 372.0 " fill="#FF8AAC"></path></g></g></g></g><image xlink:href="../../422261E6-254F-4E91-8D80-B30B2FA5311B/assets/0C8681B2007A044B9405E7264089A7AA.png" width="512.00" height="512.00" transform="matrix(0.73, 0.00, -0.00, -0.73, 559.7, 570.5)"></image></g></svg>