<?xml version="1.0" encoding="UTF-8" standalone="no"?><svg xmlns="http://www.w3.org/2000/svg" xmlns:xlink="http://www.w3.org/1999/xlink" clip-rule="evenodd" stroke-miterlimit="10" viewBox="0 0 818 89"><desc>SVG generated by Keynote</desc><defs></defs><g transform="matrix(1.00, 0.00, -0.00, -1.00, 0.0, 89.0)"><text xml:space="preserve" font-family="YanoneKaffeesatz-Bold,Yanone Kaffeesatz" font-weight="bold" font-size="90.0" fill="#E6F5CE" transform="matrix(1.00, 0.00, -0.00, -1.00, 1.0, 20.3)">S</text><text xml:space="preserve" font-family="YanoneKaffeesatz-Bold,Yanone Kaffeesatz" font-weight="bold" font-size="90.0" fill="#E6F5CE" transform="matrix(1.00, 0.00, -0.00, -1.00, 31.9, 20.3)">e</text><text xml:space="preserve" font-family="YanoneKaffeesatz-Bold,Yanone Kaffeesatz" font-weight="bold" font-size="90.0" fill="#E6F5CE" transform="matrix(1.00, 0.00, -0.00, -1.00, 63.1, 20.3)"> </text><text xml:space="preserve" font-family="YanoneKaffeesatz-Bold,Yanone Kaffeesatz" font-weight="bold" font-size="90.0" fill="#E6F5CE" transform="matrix(1.00, 0.00, -0.00, -1.00, 75.7, 20.3)">e</text><text xml:space="preserve" font-family="YanoneKaffeesatz-Bold,Yanone Kaffeesatz" font-weight="bold" font-size="90.0" fill="#E6F5CE" transform="matrix(1.00, 0.00, -0.00, -1.00, 106.8, 20.3)">u</text><text xml:space="preserve" font-family="YanoneKaffeesatz-Bold,Yanone Kaffeesatz" font-weight="bold" font-size="90.0" fill="#E6F5CE" transform="matrix(1.00, 0.00, -0.00, -1.00, 139.3, 20.3)"> </text><text xml:space="preserve" font-family="YanoneKaffeesatz-Bold,Yanone Kaffeesatz" font-weight="bold" font-size="90.0" fill="#E6F5CE" transform="matrix(1.00, 0.00, -0.00, -1.00, 151.9, 20.3)">p</text><text xml:space="preserve" font-family="YanoneKaffeesatz-Bold,Yanone Kaffeesatz" font-weight="bold" font-size="90.0" fill="#E6F5CE" transform="matrix(1.00, 0.00, -0.00, -1.00, 184.7, 20.3)">o</text><text xml:space="preserve" font-family="YanoneKaffeesatz-Bold,Yanone Kaffeesatz" font-weight="bold" font-size="90.0" fill="#E6F5CE" transform="matrix(1.00, 0.00, -0.00, -1.00, 216.3, 20.3)">s</text><text xml:space="preserve" font-family="YanoneKaffeesatz-Bold,Yanone Kaffeesatz" font-weight="bold" font-size="90.0" fill="#E6F5CE" transform="matrix(1.00, 0.00, -0.00, -1.00, 244.9, 20.3)">s</text><text xml:space="preserve" font-family="YanoneKaffeesatz-Bold,Yanone Kaffeesatz" font-weight="bold" font-size="90.0" fill="#E6F5CE" transform="matrix(1.00, 0.00, -0.00, -1.00, 273.5, 20.3)">o</text><text xml:space="preserve" font-family="YanoneKaffeesatz-Bold,Yanone Kaffeesatz" font-weight="bold" font-size="90.0" fill="#E6F5CE" transform="matrix(1.00, 0.00, -0.00, -1.00, 303.3, 20.3)">,</text><text xml:space="preserve" font-family="YanoneKaffeesatz-Bold,Yanone Kaffeesatz" font-weight="bold" font-size="90.0" fill="#E6F5CE" transform="matrix(1.00, 0.00, -0.00, -1.00, 320.2, 20.3)"> </text><text xml:space="preserve" font-family="YanoneKaffeesatz-Bold,Yanone Kaffeesatz" font-weight="bold" font-size="90.0" fill="#E6F5CE" transform="matrix(1.00, 0.00, -0.00, -1.00, 332.8, 20.3)">v</text><text xml:space="preserve" font-family="YanoneKaffeesatz-Bold,Yanone Kaffeesatz" font-weight="bold" font-size="90.0" fill="#E6F5CE" transform="matrix(1.00, 0.00, -0.00, -1.00, 360.7, 20.3)">o</text><text xml:space="preserve" font-family="YanoneKaffeesatz-Bold,Yanone Kaffeesatz" font-weight="bold" font-size="90.0" fill="#E6F5CE" transform="matrix(1.00, 0.00, -0.00, -1.00, 392.3, 20.3)">c</text><text xml:space="preserve" font-family="YanoneKaffeesatz-Bold,Yanone Kaffeesatz" font-weight="bold" font-size="90.0" fill="#E6F5CE" transform="matrix(1.00, 0.00, -0.00, -1.00, 417.1, 20.3)">ê</text><text xml:space="preserve" font-family="YanoneKaffeesatz-Bold,Yanone Kaffeesatz" font-weight="bold" font-size="90.0" fill="#E6F5CE" transform="matrix(1.00, 0.00, -0.00, -1.00, 448.3, 20.3)"> </text><text xml:space="preserve" font-family="YanoneKaffeesatz-Bold,Yanone Kaffeesatz" font-weight="bold" font-size="90.0" fill="#E6F5CE" transform="matrix(1.00, 0.00, -0.00, -1.00, 460.9, 20.3)">t</text><text xml:space="preserve" font-family="YanoneKaffeesatz-Bold,Yanone Kaffeesatz" font-weight="bold" font-size="90.0" fill="#E6F5CE" transform="matrix(1.00, 0.00, -0.00, -1.00, 486.4, 20.3)">a</text><text xml:space="preserve" font-family="YanoneKaffeesatz-Bold,Yanone Kaffeesatz" font-weight="bold" font-size="90.0" fill="#E6F5CE" transform="matrix(1.00, 0.00, -0.00, -1.00, 516.9, 20.3)">m</text><text xml:space="preserve" font-family="YanoneKaffeesatz-Bold,Yanone Kaffeesatz" font-weight="bold" font-size="90.0" fill="#E6F5CE" transform="matrix(1.00, 0.00, -0.00, -1.00, 564.6, 20.3)">b</text><text xml:space="preserve" font-family="YanoneKaffeesatz-Bold,Yanone Kaffeesatz" font-weight="bold" font-size="90.0" fill="#E6F5CE" transform="matrix(1.00, 0.00, -0.00, -1.00, 597.1, 20.3)">é</text><text xml:space="preserve" font-family="YanoneKaffeesatz-Bold,Yanone Kaffeesatz" font-weight="bold" font-size="90.0" fill="#E6F5CE" transform="matrix(1.00, 0.00, -0.00, -1.00, 628.3, 20.3)">m</text><text xml:space="preserve" font-family="YanoneKaffeesatz-Bold,Yanone Kaffeesatz" font-weight="bold" font-size="90.0" fill="#E6F5CE" transform="matrix(1.00, 0.00, -0.00, -1.00, 676.0, 20.3)"> </text><text xml:space="preserve" font-family="YanoneKaffeesatz-Bold,Yanone Kaffeesatz" font-weight="bold" font-size="90.0" fill="#E6F5CE" transform="matrix(1.00, 0.00, -0.00, -1.00, 688.6, 20.3)">p</text><text xml:space="preserve" font-family="YanoneKaffeesatz-Bold,Yanone Kaffeesatz" font-weight="bold" font-size="90.0" fill="#E6F5CE" transform="matrix(1.00, 0.00, -0.00, -1.00, 721.3, 20.3)">o</text><text xml:space="preserve" font-family="YanoneKaffeesatz-Bold,Yanone Kaffeesatz" font-weight="bold" font-size="90.0" fill="#E6F5CE" transform="matrix(1.00, 0.00, -0.00, -1.00, 752.9, 20.3)">d</text><text xml:space="preserve" font-family="YanoneKaffeesatz-Bold,Yanone Kaffeesatz" font-weight="bold" font-size="90.0" fill="#E6F5CE" transform="matrix(1.00, 0.00, -0.00, -1.00, 785.9, 20.3)">e</text></g></svg>