<?xml version="1.0" encoding="UTF-8" standalone="no"?><svg xmlns="http://www.w3.org/2000/svg" xmlns:xlink="http://www.w3.org/1999/xlink" clip-rule="evenodd" stroke-miterlimit="10" viewBox="0 0 701 359"><desc>SVG generated by Keynote</desc><defs></defs><g transform="matrix(1.00, 0.00, -0.00, -1.00, 0.0, 359.0)"><g><clipPath id="clip0x6080006b0020"><path d="M 5.5 286.3 L 616.5 286.3 L 616.5 5.7 L 5.5 5.7 Z M 5.5 286.3 "></path></clipPath><g clip-path="url(#clip0x6080006b0020)"><g><clipPath id="clip0x6080006a7bc0"><path d="M -29.2 -32.5 L 651.2 -32.5 L 651.2 321.0 L -29.2 321.0 Z M -29.2 -32.5 "></path></clipPath><g clip-path="url(#clip0x6080006a7bc0)"><path d="M 5.5 286.3 L 616.5 286.3 L 616.5 1.7 L 5.5 1.7 Z M 5.5 286.3 " fill="#E6F5CE"></path></g></g></g></g><g><clipPath id="clip0x6080006ab160"><path d="M -29.2 -32.5 L 651.2 -32.5 L 651.2 321.0 L -29.2 321.0 Z M -29.2 -32.5 "></path></clipPath><g clip-path="url(#clip0x6080006ab160)"><text xml:space="preserve" font-family="YanoneKaffeesatz-Regular,Yanone Kaffeesatz" font-size="120.0" fill="#FF6762" transform="matrix(1.00, 0.00, -0.00, -1.00, 23.8, 171.7)">A</text><text xml:space="preserve" font-family="YanoneKaffeesatz-Regular,Yanone Kaffeesatz" font-size="120.0" fill="#FF6762" transform="matrix(1.00, 0.00, -0.00, -1.00, 76.3, 171.7)">n</text><text xml:space="preserve" font-family="YanoneKaffeesatz-Regular,Yanone Kaffeesatz" font-size="120.0" fill="#FF6762" transform="matrix(1.00, 0.00, -0.00, -1.00, 122.1, 171.7)">i</text><text xml:space="preserve" font-family="YanoneKaffeesatz-Regular,Yanone Kaffeesatz" font-size="120.0" fill="#FF6762" transform="matrix(1.00, 0.00, -0.00, -1.00, 143.1, 171.7)">m</text><text xml:space="preserve" font-family="YanoneKaffeesatz-Regular,Yanone Kaffeesatz" font-size="120.0" fill="#FF6762" transform="matrix(1.00, 0.00, -0.00, -1.00, 210.7, 171.7)">a</text><text xml:space="preserve" font-family="YanoneKaffeesatz-Regular,Yanone Kaffeesatz" font-size="120.0" fill="#FF6762" transform="matrix(1.00, 0.00, -0.00, -1.00, 253.2, 171.7)">ç</text><text xml:space="preserve" font-family="YanoneKaffeesatz-Regular,Yanone Kaffeesatz" font-size="120.0" fill="#FF6762" transform="matrix(1.00, 0.00, -0.00, -1.00, 288.8, 171.7)">õ</text><text xml:space="preserve" font-family="YanoneKaffeesatz-Regular,Yanone Kaffeesatz" font-size="120.0" fill="#FF6762" transform="matrix(1.00, 0.00, -0.00, -1.00, 333.0, 171.7)">e</text><text xml:space="preserve" font-family="YanoneKaffeesatz-Regular,Yanone Kaffeesatz" font-size="120.0" fill="#FF6762" transform="matrix(1.00, 0.00, -0.00, -1.00, 376.3, 171.7)">s</text><text xml:space="preserve" font-family="YanoneKaffeesatz-Regular,Yanone Kaffeesatz" font-size="120.0" fill="#FF6762" transform="matrix(1.00, 0.00, -0.00, -1.00, 417.7, 171.7)"> </text><text xml:space="preserve" font-family="YanoneKaffeesatz-Regular,Yanone Kaffeesatz" font-size="120.0" fill="#FF6762" transform="matrix(1.00, 0.00, -0.00, -1.00, 436.5, 171.7)">p</text><text xml:space="preserve" font-family="YanoneKaffeesatz-Regular,Yanone Kaffeesatz" font-size="120.0" fill="#FF6762" transform="matrix(1.00, 0.00, -0.00, -1.00, 481.6, 171.7)">a</text><text xml:space="preserve" font-family="YanoneKaffeesatz-Regular,Yanone Kaffeesatz" font-size="120.0" fill="#FF6762" transform="matrix(1.00, 0.00, -0.00, -1.00, 524.1, 171.7)">r</text><text xml:space="preserve" font-family="YanoneKaffeesatz-Regular,Yanone Kaffeesatz" font-size="120.0" fill="#FF6762" transform="matrix(1.00, 0.00, -0.00, -1.00, 555.7, 171.7)">a</text><text xml:space="preserve" font-family="YanoneKaffeesatz-Regular,Yanone Kaffeesatz" font-size="120.0" fill="#FF6762" transform="matrix(1.00, 0.00, -0.00, -1.00, 598.2, 171.7)"> </text><text xml:space="preserve" font-family="YanoneKaffeesatz-Regular,Yanone Kaffeesatz" font-size="120.0" fill="#FF6762" transform="matrix(1.00, 0.00, -0.00, -1.00, 6.0, 29.7)">d</text><text xml:space="preserve" font-family="YanoneKaffeesatz-Regular,Yanone Kaffeesatz" font-size="120.0" fill="#FF6762" transform="matrix(1.00, 0.00, -0.00, -1.00, 52.3, 29.7)">e</text><text xml:space="preserve" font-family="YanoneKaffeesatz-Regular,Yanone Kaffeesatz" font-size="120.0" fill="#FF6762" transform="matrix(1.00, 0.00, -0.00, -1.00, 95.7, 29.7)">s</text><text xml:space="preserve" font-family="YanoneKaffeesatz-Regular,Yanone Kaffeesatz" font-size="120.0" fill="#FF6762" transform="matrix(1.00, 0.00, -0.00, -1.00, 137.1, 29.7)">e</text><text xml:space="preserve" font-family="YanoneKaffeesatz-Regular,Yanone Kaffeesatz" font-size="120.0" fill="#FF6762" transform="matrix(1.00, 0.00, -0.00, -1.00, 180.4, 29.7)">n</text><text xml:space="preserve" font-family="YanoneKaffeesatz-Regular,Yanone Kaffeesatz" font-size="120.0" fill="#FF6762" transform="matrix(1.00, 0.00, -0.00, -1.00, 226.2, 29.7)">v</text><text xml:space="preserve" font-family="YanoneKaffeesatz-Regular,Yanone Kaffeesatz" font-size="120.0" fill="#FF6762" transform="matrix(1.00, 0.00, -0.00, -1.00, 265.1, 29.7)">o</text><text xml:space="preserve" font-family="YanoneKaffeesatz-Regular,Yanone Kaffeesatz" font-size="120.0" fill="#FF6762" transform="matrix(1.00, 0.00, -0.00, -1.00, 309.3, 29.7)">l</text><text xml:space="preserve" font-family="YanoneKaffeesatz-Regular,Yanone Kaffeesatz" font-size="120.0" fill="#FF6762" transform="matrix(1.00, 0.00, -0.00, -1.00, 330.0, 29.7)">v</text><text xml:space="preserve" font-family="YanoneKaffeesatz-Regular,Yanone Kaffeesatz" font-size="120.0" fill="#FF6762" transform="matrix(1.00, 0.00, -0.00, -1.00, 368.4, 29.7)">e</text><text xml:space="preserve" font-family="YanoneKaffeesatz-Regular,Yanone Kaffeesatz" font-size="120.0" fill="#FF6762" transform="matrix(1.00, 0.00, -0.00, -1.00, 411.7, 29.7)">d</text><text xml:space="preserve" font-family="YanoneKaffeesatz-Regular,Yanone Kaffeesatz" font-size="120.0" fill="#FF6762" transform="matrix(1.00, 0.00, -0.00, -1.00, 458.1, 29.7)">o</text><text xml:space="preserve" font-family="YanoneKaffeesatz-Regular,Yanone Kaffeesatz" font-size="120.0" fill="#FF6762" transform="matrix(1.00, 0.00, -0.00, -1.00, 502.2, 29.7)">r</text><text xml:space="preserve" font-family="YanoneKaffeesatz-Regular,Yanone Kaffeesatz" font-size="120.0" fill="#FF6762" transform="matrix(1.00, 0.00, -0.00, -1.00, 531.3, 29.7)">e</text><text xml:space="preserve" font-family="YanoneKaffeesatz-Regular,Yanone Kaffeesatz" font-size="120.0" fill="#FF6762" transform="matrix(1.00, 0.00, -0.00, -1.00, 574.6, 29.7)">s</text></g></g><g><clipPath id="clip0x6080006b0ec0"><path d="M 485.1 371.8 L 714.1 172.8 L 656.4 106.5 L 427.5 305.5 Z M 485.1 371.8 "></path></clipPath><g clip-path="url(#clip0x6080006b0ec0)"><g><clipPath id="clip0x6080006a8160"><path d="M 486.6 351.4 L 693.7 171.4 L 655.9 128.0 L 448.8 308.0 Z M 486.6 351.4 "></path></clipPath><g clip-path="url(#clip0x6080006a8160)"><path d="M 486.6 351.4 L 693.7 171.4 L 653.3 124.9 L 446.2 305.0 Z M 486.6 351.4 " fill="#FAD92C"></path></g></g></g></g><g><clipPath id="clip0x6080006a9840"><path d="M 485.1 371.8 L 714.1 172.8 L 656.4 106.5 L 427.5 305.5 Z M 485.1 371.8 "></path></clipPath><g clip-path="url(#clip0x6080006a9840)"><text xml:space="preserve" font-family="YanoneKaffeesatz-Light,Yanone Kaffeesatz" font-size="50.0" fill="#FF6762" transform="matrix(0.75, -0.66, -0.66, -0.75, 479.7, 294.4)">s</text><text xml:space="preserve" font-family="YanoneKaffeesatz-Light,Yanone Kaffeesatz" font-size="50.0" fill="#FF6762" transform="matrix(0.75, -0.66, -0.66, -0.75, 493.6, 282.3)">h</text><text xml:space="preserve" font-family="YanoneKaffeesatz-Light,Yanone Kaffeesatz" font-size="50.0" fill="#FF6762" transform="matrix(0.75, -0.66, -0.66, -0.75, 508.5, 269.3)">o</text><text xml:space="preserve" font-family="YanoneKaffeesatz-Light,Yanone Kaffeesatz" font-size="50.0" fill="#FF6762" transform="matrix(0.75, -0.66, -0.66, -0.75, 523.0, 256.8)">r</text><text xml:space="preserve" font-family="YanoneKaffeesatz-Light,Yanone Kaffeesatz" font-size="50.0" fill="#FF6762" transform="matrix(0.75, -0.66, -0.66, -0.75, 533.4, 247.7)">t</text><text xml:space="preserve" font-family="YanoneKaffeesatz-Light,Yanone Kaffeesatz" font-size="50.0" fill="#FF6762" transform="matrix(0.75, -0.66, -0.66, -0.75, 544.6, 238.0)"> </text><text xml:space="preserve" font-family="YanoneKaffeesatz-Light,Yanone Kaffeesatz" font-size="50.0" fill="#FF6762" transform="matrix(0.75, -0.66, -0.66, -0.75, 551.1, 232.3)">v</text><text xml:space="preserve" font-family="YanoneKaffeesatz-Light,Yanone Kaffeesatz" font-size="50.0" fill="#FF6762" transform="matrix(0.75, -0.66, -0.66, -0.75, 563.7, 221.4)">e</text><text xml:space="preserve" font-family="YanoneKaffeesatz-Light,Yanone Kaffeesatz" font-size="50.0" fill="#FF6762" transform="matrix(0.75, -0.66, -0.66, -0.75, 577.8, 209.1)">r</text><text xml:space="preserve" font-family="YanoneKaffeesatz-Light,Yanone Kaffeesatz" font-size="50.0" fill="#FF6762" transform="matrix(0.75, -0.66, -0.66, -0.75, 588.2, 200.1)">s</text><text xml:space="preserve" font-family="YanoneKaffeesatz-Light,Yanone Kaffeesatz" font-size="50.0" fill="#FF6762" transform="matrix(0.75, -0.66, -0.66, -0.75, 602.1, 188.0)">i</text><text xml:space="preserve" font-family="YanoneKaffeesatz-Light,Yanone Kaffeesatz" font-size="50.0" fill="#FF6762" transform="matrix(0.75, -0.66, -0.66, -0.75, 608.5, 182.4)">o</text><text xml:space="preserve" font-family="YanoneKaffeesatz-Light,Yanone Kaffeesatz" font-size="50.0" fill="#FF6762" transform="matrix(0.75, -0.66, -0.66, -0.75, 623.0, 169.8)">n</text></g></g></g></svg>