<?xml version="1.0" encoding="UTF-8" standalone="no"?><svg xmlns="http://www.w3.org/2000/svg" xmlns:xlink="http://www.w3.org/1999/xlink" clip-rule="evenodd" stroke-miterlimit="10" viewBox="0 0 1024 768"><desc>SVG generated by Keynote</desc><defs></defs><g transform="matrix(1.00, 0.00, -0.00, -1.00, 0.0, 768.0)"><path d="M 0.0 768.0 L 1024.0 768.0 L 1024.0 0.0 L 0.0 0.0 Z M 0.0 768.0 " fill="#FF6762"></path><text xml:space="preserve" font-family="YanoneKaffeesatz-Bold,Yanone Kaffeesatz" font-weight="bold" font-size="90.0" fill="#E6F5CE" transform="matrix(1.00, 0.00, -0.00, -1.00, 104.0, 569.3)">S</text><text xml:space="preserve" font-family="YanoneKaffeesatz-Bold,Yanone Kaffeesatz" font-weight="bold" font-size="90.0" fill="#E6F5CE" transform="matrix(1.00, 0.00, -0.00, -1.00, 134.9, 569.3)">e</text><text xml:space="preserve" font-family="YanoneKaffeesatz-Bold,Yanone Kaffeesatz" font-weight="bold" font-size="90.0" fill="#E6F5CE" transform="matrix(1.00, 0.00, -0.00, -1.00, 166.1, 569.3)"> </text><text xml:space="preserve" font-family="YanoneKaffeesatz-Bold,Yanone Kaffeesatz" font-weight="bold" font-size="90.0" fill="#E6F5CE" transform="matrix(1.00, 0.00, -0.00, -1.00, 178.7, 569.3)">e</text><text xml:space="preserve" font-family="YanoneKaffeesatz-Bold,Yanone Kaffeesatz" font-weight="bold" font-size="90.0" fill="#E6F5CE" transform="matrix(1.00, 0.00, -0.00, -1.00, 209.8, 569.3)">u</text><text xml:space="preserve" font-family="YanoneKaffeesatz-Bold,Yanone Kaffeesatz" font-weight="bold" font-size="90.0" fill="#E6F5CE" transform="matrix(1.00, 0.00, -0.00, -1.00, 242.3, 569.3)"> </text><text xml:space="preserve" font-family="YanoneKaffeesatz-Bold,Yanone Kaffeesatz" font-weight="bold" font-size="90.0" fill="#E6F5CE" transform="matrix(1.00, 0.00, -0.00, -1.00, 254.9, 569.3)">p</text><text xml:space="preserve" font-family="YanoneKaffeesatz-Bold,Yanone Kaffeesatz" font-weight="bold" font-size="90.0" fill="#E6F5CE" transform="matrix(1.00, 0.00, -0.00, -1.00, 287.7, 569.3)">o</text><text xml:space="preserve" font-family="YanoneKaffeesatz-Bold,Yanone Kaffeesatz" font-weight="bold" font-size="90.0" fill="#E6F5CE" transform="matrix(1.00, 0.00, -0.00, -1.00, 319.3, 569.3)">s</text><text xml:space="preserve" font-family="YanoneKaffeesatz-Bold,Yanone Kaffeesatz" font-weight="bold" font-size="90.0" fill="#E6F5CE" transform="matrix(1.00, 0.00, -0.00, -1.00, 347.9, 569.3)">s</text><text xml:space="preserve" font-family="YanoneKaffeesatz-Bold,Yanone Kaffeesatz" font-weight="bold" font-size="90.0" fill="#E6F5CE" transform="matrix(1.00, 0.00, -0.00, -1.00, 376.5, 569.3)">o</text><text xml:space="preserve" font-family="YanoneKaffeesatz-Bold,Yanone Kaffeesatz" font-weight="bold" font-size="90.0" fill="#E6F5CE" transform="matrix(1.00, 0.00, -0.00, -1.00, 406.3, 569.3)">,</text><text xml:space="preserve" font-family="YanoneKaffeesatz-Bold,Yanone Kaffeesatz" font-weight="bold" font-size="90.0" fill="#E6F5CE" transform="matrix(1.00, 0.00, -0.00, -1.00, 423.2, 569.3)"> </text><text xml:space="preserve" font-family="YanoneKaffeesatz-Bold,Yanone Kaffeesatz" font-weight="bold" font-size="90.0" fill="#E6F5CE" transform="matrix(1.00, 0.00, -0.00, -1.00, 435.8, 569.3)">v</text><text xml:space="preserve" font-family="YanoneKaffeesatz-Bold,Yanone Kaffeesatz" font-weight="bold" font-size="90.0" fill="#E6F5CE" transform="matrix(1.00, 0.00, -0.00, -1.00, 463.7, 569.3)">o</text><text xml:space="preserve" font-family="YanoneKaffeesatz-Bold,Yanone Kaffeesatz" font-weight="bold" font-size="90.0" fill="#E6F5CE" transform="matrix(1.00, 0.00, -0.00, -1.00, 495.3, 569.3)">c</text><text xml:space="preserve" font-family="YanoneKaffeesatz-Bold,Yanone Kaffeesatz" font-weight="bold" font-size="90.0" fill="#E6F5CE" transform="matrix(1.00, 0.00, -0.00, -1.00, 520.1, 569.3)">ê</text><text xml:space="preserve" font-family="YanoneKaffeesatz-Bold,Yanone Kaffeesatz" font-weight="bold" font-size="90.0" fill="#E6F5CE" transform="matrix(1.00, 0.00, -0.00, -1.00, 551.3, 569.3)"> </text><text xml:space="preserve" font-family="YanoneKaffeesatz-Bold,Yanone Kaffeesatz" font-weight="bold" font-size="90.0" fill="#E6F5CE" transform="matrix(1.00, 0.00, -0.00, -1.00, 563.9, 569.3)">t</text><text xml:space="preserve" font-family="YanoneKaffeesatz-Bold,Yanone Kaffeesatz" font-weight="bold" font-size="90.0" fill="#E6F5CE" transform="matrix(1.00, 0.00, -0.00, -1.00, 589.4, 569.3)">a</text><text xml:space="preserve" font-family="YanoneKaffeesatz-Bold,Yanone Kaffeesatz" font-weight="bold" font-size="90.0" fill="#E6F5CE" transform="matrix(1.00, 0.00, -0.00, -1.00, 619.9, 569.3)">m</text><text xml:space="preserve" font-family="YanoneKaffeesatz-Bold,Yanone Kaffeesatz" font-weight="bold" font-size="90.0" fill="#E6F5CE" transform="matrix(1.00, 0.00, -0.00, -1.00, 667.6, 569.3)">b</text><text xml:space="preserve" font-family="YanoneKaffeesatz-Bold,Yanone Kaffeesatz" font-weight="bold" font-size="90.0" fill="#E6F5CE" transform="matrix(1.00, 0.00, -0.00, -1.00, 700.1, 569.3)">é</text><text xml:space="preserve" font-family="YanoneKaffeesatz-Bold,Yanone Kaffeesatz" font-weight="bold" font-size="90.0" fill="#E6F5CE" transform="matrix(1.00, 0.00, -0.00, -1.00, 731.3, 569.3)">m</text><text xml:space="preserve" font-family="YanoneKaffeesatz-Bold,Yanone Kaffeesatz" font-weight="bold" font-size="90.0" fill="#E6F5CE" transform="matrix(1.00, 0.00, -0.00, -1.00, 779.0, 569.3)"> </text><text xml:space="preserve" font-family="YanoneKaffeesatz-Bold,Yanone Kaffeesatz" font-weight="bold" font-size="90.0" fill="#E6F5CE" transform="matrix(1.00, 0.00, -0.00, -1.00, 791.6, 569.3)">p</text><text xml:space="preserve" font-family="YanoneKaffeesatz-Bold,Yanone Kaffeesatz" font-weight="bold" font-size="90.0" fill="#E6F5CE" transform="matrix(1.00, 0.00, -0.00, -1.00, 824.3, 569.3)">o</text><text xml:space="preserve" font-family="YanoneKaffeesatz-Bold,Yanone Kaffeesatz" font-weight="bold" font-size="90.0" fill="#E6F5CE" transform="matrix(1.00, 0.00, -0.00, -1.00, 855.9, 569.3)">d</text><text xml:space="preserve" font-family="YanoneKaffeesatz-Bold,Yanone Kaffeesatz" font-weight="bold" font-size="90.0" fill="#E6F5CE" transform="matrix(1.00, 0.00, -0.00, -1.00, 888.9, 569.3)">e</text><g><clipPath id="clip0x6080004bbc60"><path d="M 206.5 467.3 L 817.5 467.3 L 817.5 186.7 L 206.5 186.7 Z M 206.5 467.3 "></path></clipPath><g clip-path="url(#clip0x6080004bbc60)"><g><clipPath id="clip0x6080006a9c00"><path d="M 171.8 148.5 L 852.2 148.5 L 852.2 502.0 L 171.8 502.0 Z M 171.8 148.5 "></path></clipPath><g clip-path="url(#clip0x6080006a9c00)"><path d="M 206.5 467.3 L 817.5 467.3 L 817.5 182.7 L 206.5 182.7 Z M 206.5 467.3 " fill="#E6F5CE"></path></g></g></g></g><g><clipPath id="clip0x6080006acd80"><path d="M 171.8 148.5 L 852.2 148.5 L 852.2 502.0 L 171.8 502.0 Z M 171.8 148.5 "></path></clipPath><g clip-path="url(#clip0x6080006acd80)"><text xml:space="preserve" font-family="YanoneKaffeesatz-Regular,Yanone Kaffeesatz" font-size="120.0" fill="#FF6762" transform="matrix(1.00, 0.00, -0.00, -1.00, 224.8, 352.7)">A</text><text xml:space="preserve" font-family="YanoneKaffeesatz-Regular,Yanone Kaffeesatz" font-size="120.0" fill="#FF6762" transform="matrix(1.00, 0.00, -0.00, -1.00, 277.3, 352.7)">n</text><text xml:space="preserve" font-family="YanoneKaffeesatz-Regular,Yanone Kaffeesatz" font-size="120.0" fill="#FF6762" transform="matrix(1.00, 0.00, -0.00, -1.00, 323.1, 352.7)">i</text><text xml:space="preserve" font-family="YanoneKaffeesatz-Regular,Yanone Kaffeesatz" font-size="120.0" fill="#FF6762" transform="matrix(1.00, 0.00, -0.00, -1.00, 344.1, 352.7)">m</text><text xml:space="preserve" font-family="YanoneKaffeesatz-Regular,Yanone Kaffeesatz" font-size="120.0" fill="#FF6762" transform="matrix(1.00, 0.00, -0.00, -1.00, 411.7, 352.7)">a</text><text xml:space="preserve" font-family="YanoneKaffeesatz-Regular,Yanone Kaffeesatz" font-size="120.0" fill="#FF6762" transform="matrix(1.00, 0.00, -0.00, -1.00, 454.2, 352.7)">ç</text><text xml:space="preserve" font-family="YanoneKaffeesatz-Regular,Yanone Kaffeesatz" font-size="120.0" fill="#FF6762" transform="matrix(1.00, 0.00, -0.00, -1.00, 489.8, 352.7)">õ</text><text xml:space="preserve" font-family="YanoneKaffeesatz-Regular,Yanone Kaffeesatz" font-size="120.0" fill="#FF6762" transform="matrix(1.00, 0.00, -0.00, -1.00, 534.0, 352.7)">e</text><text xml:space="preserve" font-family="YanoneKaffeesatz-Regular,Yanone Kaffeesatz" font-size="120.0" fill="#FF6762" transform="matrix(1.00, 0.00, -0.00, -1.00, 577.3, 352.7)">s</text><text xml:space="preserve" font-family="YanoneKaffeesatz-Regular,Yanone Kaffeesatz" font-size="120.0" fill="#FF6762" transform="matrix(1.00, 0.00, -0.00, -1.00, 618.7, 352.7)"> </text><text xml:space="preserve" font-family="YanoneKaffeesatz-Regular,Yanone Kaffeesatz" font-size="120.0" fill="#FF6762" transform="matrix(1.00, 0.00, -0.00, -1.00, 637.5, 352.7)">p</text><text xml:space="preserve" font-family="YanoneKaffeesatz-Regular,Yanone Kaffeesatz" font-size="120.0" fill="#FF6762" transform="matrix(1.00, 0.00, -0.00, -1.00, 682.6, 352.7)">a</text><text xml:space="preserve" font-family="YanoneKaffeesatz-Regular,Yanone Kaffeesatz" font-size="120.0" fill="#FF6762" transform="matrix(1.00, 0.00, -0.00, -1.00, 725.1, 352.7)">r</text><text xml:space="preserve" font-family="YanoneKaffeesatz-Regular,Yanone Kaffeesatz" font-size="120.0" fill="#FF6762" transform="matrix(1.00, 0.00, -0.00, -1.00, 756.7, 352.7)">a</text><text xml:space="preserve" font-family="YanoneKaffeesatz-Regular,Yanone Kaffeesatz" font-size="120.0" fill="#FF6762" transform="matrix(1.00, 0.00, -0.00, -1.00, 799.2, 352.7)"> </text><text xml:space="preserve" font-family="YanoneKaffeesatz-Regular,Yanone Kaffeesatz" font-size="120.0" fill="#FF6762" transform="matrix(1.00, 0.00, -0.00, -1.00, 207.0, 210.7)">d</text><text xml:space="preserve" font-family="YanoneKaffeesatz-Regular,Yanone Kaffeesatz" font-size="120.0" fill="#FF6762" transform="matrix(1.00, 0.00, -0.00, -1.00, 253.3, 210.7)">e</text><text xml:space="preserve" font-family="YanoneKaffeesatz-Regular,Yanone Kaffeesatz" font-size="120.0" fill="#FF6762" transform="matrix(1.00, 0.00, -0.00, -1.00, 296.7, 210.7)">s</text><text xml:space="preserve" font-family="YanoneKaffeesatz-Regular,Yanone Kaffeesatz" font-size="120.0" fill="#FF6762" transform="matrix(1.00, 0.00, -0.00, -1.00, 338.1, 210.7)">e</text><text xml:space="preserve" font-family="YanoneKaffeesatz-Regular,Yanone Kaffeesatz" font-size="120.0" fill="#FF6762" transform="matrix(1.00, 0.00, -0.00, -1.00, 381.4, 210.7)">n</text><text xml:space="preserve" font-family="YanoneKaffeesatz-Regular,Yanone Kaffeesatz" font-size="120.0" fill="#FF6762" transform="matrix(1.00, 0.00, -0.00, -1.00, 427.2, 210.7)">v</text><text xml:space="preserve" font-family="YanoneKaffeesatz-Regular,Yanone Kaffeesatz" font-size="120.0" fill="#FF6762" transform="matrix(1.00, 0.00, -0.00, -1.00, 466.1, 210.7)">o</text><text xml:space="preserve" font-family="YanoneKaffeesatz-Regular,Yanone Kaffeesatz" font-size="120.0" fill="#FF6762" transform="matrix(1.00, 0.00, -0.00, -1.00, 510.3, 210.7)">l</text><text xml:space="preserve" font-family="YanoneKaffeesatz-Regular,Yanone Kaffeesatz" font-size="120.0" fill="#FF6762" transform="matrix(1.00, 0.00, -0.00, -1.00, 531.0, 210.7)">v</text><text xml:space="preserve" font-family="YanoneKaffeesatz-Regular,Yanone Kaffeesatz" font-size="120.0" fill="#FF6762" transform="matrix(1.00, 0.00, -0.00, -1.00, 569.4, 210.7)">e</text><text xml:space="preserve" font-family="YanoneKaffeesatz-Regular,Yanone Kaffeesatz" font-size="120.0" fill="#FF6762" transform="matrix(1.00, 0.00, -0.00, -1.00, 612.7, 210.7)">d</text><text xml:space="preserve" font-family="YanoneKaffeesatz-Regular,Yanone Kaffeesatz" font-size="120.0" fill="#FF6762" transform="matrix(1.00, 0.00, -0.00, -1.00, 659.1, 210.7)">o</text><text xml:space="preserve" font-family="YanoneKaffeesatz-Regular,Yanone Kaffeesatz" font-size="120.0" fill="#FF6762" transform="matrix(1.00, 0.00, -0.00, -1.00, 703.2, 210.7)">r</text><text xml:space="preserve" font-family="YanoneKaffeesatz-Regular,Yanone Kaffeesatz" font-size="120.0" fill="#FF6762" transform="matrix(1.00, 0.00, -0.00, -1.00, 732.3, 210.7)">e</text><text xml:space="preserve" font-family="YanoneKaffeesatz-Regular,Yanone Kaffeesatz" font-size="120.0" fill="#FF6762" transform="matrix(1.00, 0.00, -0.00, -1.00, 775.6, 210.7)">s</text></g></g><g><clipPath id="clip0x6080006a8520"><path d="M 686.1 552.8 L 915.1 353.8 L 857.4 287.5 L 628.5 486.5 Z M 686.1 552.8 "></path></clipPath><g clip-path="url(#clip0x6080006a8520)"><g><clipPath id="clip0x6080006aea00"><path d="M 687.6 532.4 L 894.7 352.4 L 856.9 309.0 L 649.8 489.0 Z M 687.6 532.4 "></path></clipPath><g clip-path="url(#clip0x6080006aea00)"><path d="M 687.6 532.4 L 894.7 352.4 L 854.3 305.9 L 647.2 486.0 Z M 687.6 532.4 " fill="#FAD92C"></path></g></g></g></g><g><clipPath id="clip0x6080006a6e40"><path d="M 686.1 552.8 L 915.1 353.8 L 857.4 287.5 L 628.5 486.5 Z M 686.1 552.8 "></path></clipPath><g clip-path="url(#clip0x6080006a6e40)"><text xml:space="preserve" font-family="YanoneKaffeesatz-Light,Yanone Kaffeesatz" font-size="50.0" fill="#FF6762" transform="matrix(0.75, -0.66, -0.66, -0.75, 680.7, 475.4)">s</text><text xml:space="preserve" font-family="YanoneKaffeesatz-Light,Yanone Kaffeesatz" font-size="50.0" fill="#FF6762" transform="matrix(0.75, -0.66, -0.66, -0.75, 694.6, 463.3)">h</text><text xml:space="preserve" font-family="YanoneKaffeesatz-Light,Yanone Kaffeesatz" font-size="50.0" fill="#FF6762" transform="matrix(0.75, -0.66, -0.66, -0.75, 709.5, 450.3)">o</text><text xml:space="preserve" font-family="YanoneKaffeesatz-Light,Yanone Kaffeesatz" font-size="50.0" fill="#FF6762" transform="matrix(0.75, -0.66, -0.66, -0.75, 724.0, 437.8)">r</text><text xml:space="preserve" font-family="YanoneKaffeesatz-Light,Yanone Kaffeesatz" font-size="50.0" fill="#FF6762" transform="matrix(0.75, -0.66, -0.66, -0.75, 734.4, 428.7)">t</text><text xml:space="preserve" font-family="YanoneKaffeesatz-Light,Yanone Kaffeesatz" font-size="50.0" fill="#FF6762" transform="matrix(0.75, -0.66, -0.66, -0.75, 745.6, 419.0)"> </text><text xml:space="preserve" font-family="YanoneKaffeesatz-Light,Yanone Kaffeesatz" font-size="50.0" fill="#FF6762" transform="matrix(0.75, -0.66, -0.66, -0.75, 752.1, 413.3)">v</text><text xml:space="preserve" font-family="YanoneKaffeesatz-Light,Yanone Kaffeesatz" font-size="50.0" fill="#FF6762" transform="matrix(0.75, -0.66, -0.66, -0.75, 764.7, 402.4)">e</text><text xml:space="preserve" font-family="YanoneKaffeesatz-Light,Yanone Kaffeesatz" font-size="50.0" fill="#FF6762" transform="matrix(0.75, -0.66, -0.66, -0.75, 778.8, 390.1)">r</text><text xml:space="preserve" font-family="YanoneKaffeesatz-Light,Yanone Kaffeesatz" font-size="50.0" fill="#FF6762" transform="matrix(0.75, -0.66, -0.66, -0.75, 789.2, 381.1)">s</text><text xml:space="preserve" font-family="YanoneKaffeesatz-Light,Yanone Kaffeesatz" font-size="50.0" fill="#FF6762" transform="matrix(0.75, -0.66, -0.66, -0.75, 803.1, 369.0)">i</text><text xml:space="preserve" font-family="YanoneKaffeesatz-Light,Yanone Kaffeesatz" font-size="50.0" fill="#FF6762" transform="matrix(0.75, -0.66, -0.66, -0.75, 809.5, 363.4)">o</text><text xml:space="preserve" font-family="YanoneKaffeesatz-Light,Yanone Kaffeesatz" font-size="50.0" fill="#FF6762" transform="matrix(0.75, -0.66, -0.66, -0.75, 824.0, 350.8)">n</text></g></g></g></svg>