<?xml version="1.0" encoding="UTF-8" standalone="no"?><svg xmlns="http://www.w3.org/2000/svg" xmlns:xlink="http://www.w3.org/1999/xlink" clip-rule="evenodd" stroke-miterlimit="10" viewBox="0 0 910 108"><desc>SVG generated by Keynote</desc><defs></defs><g transform="matrix(1.00, 0.00, -0.00, -1.00, 0.0, 108.0)"><path d="M 623.6 99.4 C 627.4 99.4 643.6 98.7 643.8 98.5 C 637.8 98.8 624.8 99.2 623.6 99.4 C 623.6 99.4 623.6 99.4 623.6 99.4 Z M 590.3 100.8 C 596.4 100.7 609.6 100.1 613.8 99.8 C 606.8 100.2 592.5 100.5 590.3 100.8 C 590.3 100.8 590.3 100.8 590.3 100.8 Z M 641.0 98.2 C 649.7 97.8 665.4 97.1 669.2 96.7 C 660.8 97.2 644.9 97.9 641.0 98.2 C 641.0 98.2 641.0 98.2 641.0 98.2 Z M 171.4 95.1 C 174.7 95.5 189.3 96.7 189.3 96.5 C 183.9 96.1 172.5 95.1 171.4 95.1 C 171.4 95.1 171.4 95.1 171.4 95.1 Z M 256.2 100.3 C 262.0 100.7 274.9 101.2 279.0 101.3 C 272.1 101.0 258.3 100.2 256.2 100.3 C 256.2 100.3 256.2 100.3 256.2 100.3 Z M 309.1 102.6 C 321.8 103.1 335.4 103.5 332.9 103.2 C 328.8 103.2 310.5 102.5 309.1 102.6 C 309.1 102.6 309.1 102.6 309.1 102.6 Z M 630.2 91.1 C 617.1 91.8 607.3 92.0 598.3 92.3 C 552.7 93.9 621.5 91.8 630.2 91.1 C 630.2 91.1 630.2 91.1 630.2 91.1 Z M 406.7 104.3 C 397.2 104.2 389.7 104.1 385.2 104.1 C 393.9 104.3 406.2 104.5 406.7 104.3 C 406.7 104.3 406.7 104.3 406.7 104.3 Z M 488.5 104.2 C 490.6 104.3 539.0 103.7 565.2 102.9 C 542.9 103.4 486.4 104.1 488.5 104.2 C 488.5 104.2 488.5 104.2 488.5 104.2 Z M 520.2 94.2 C 489.0 94.8 438.7 94.8 415.9 94.7 C 393.3 94.6 456.6 95.4 514.1 94.6 C 571.9 93.8 524.3 94.1 547.6 93.6 C 570.7 93.0 525.3 93.9 501.9 94.2 C 478.6 94.6 517.4 94.1 520.2 94.2 C 520.2 94.2 520.2 94.2 520.2 94.2 Z M 521.6 93.5 C 532.9 93.3 542.6 93.1 549.0 92.9 C 537.4 93.1 526.3 93.2 521.6 93.5 C 521.6 93.5 521.6 93.5 521.6 93.5 Z M 782.7 84.2 C 786.0 84.8 799.3 84.2 815.3 82.7 C 831.2 81.3 849.4 79.0 864.0 76.2 C 871.3 74.8 877.6 73.3 883.1 71.8 C 892.9 68.8 899.6 65.9 903.8 61.3 C 905.9 59.1 907.3 55.8 906.8 52.5 C 906.3 49.2 904.3 46.6 901.8 44.5 C 891.8 36.0 870.6 30.3 835.6 24.4 C 821.7 22.1 805.8 19.9 787.2 17.7 C 783.7 17.3 780.1 16.9 776.4 16.6 C 774.6 16.4 772.1 16.1 771.3 16.0 C 770.5 15.9 769.7 15.8 768.9 15.8 C 765.6 15.4 762.3 15.1 758.9 14.7 C 752.2 14.1 745.4 13.5 738.4 12.9 C 724.4 11.6 709.9 10.6 694.8 9.6 C 684.9 8.9 674.7 8.3 664.1 7.7 C 626.7 5.4 588.8 4.3 549.0 3.4 C 529.1 3.0 508.6 2.6 487.6 2.2 C 477.0 2.0 431.7 2.0 415.8 2.3 C 431.2 1.8 357.5 3.0 360.8 2.9 C 352.7 3.3 344.2 3.6 335.9 3.8 C 327.5 4.1 338.1 3.9 348.7 3.7 C 339.3 4.0 329.9 4.3 320.4 4.6 C 310.4 4.9 300.5 5.2 290.5 5.6 C 257.7 6.8 224.0 8.8 196.5 11.0 C 187.1 11.7 175.9 12.6 163.9 13.6 C 157.8 14.1 151.6 14.7 145.3 15.3 C 143.7 15.5 142.2 15.7 140.6 15.8 C 139.8 15.9 139.0 16.0 137.2 16.2 C 135.4 16.3 133.6 16.5 131.8 16.7 C 124.7 17.5 117.7 18.3 111.0 19.1 C 84.3 22.4 61.7 26.1 44.9 30.1 C 28.0 34.0 16.9 37.9 10.1 42.7 C 6.7 45.1 4.0 47.9 3.1 51.7 C 2.2 55.6 3.8 59.4 5.9 61.9 C 10.1 66.8 16.2 69.3 21.9 71.4 C 27.6 73.6 32.7 75.0 34.9 75.5 C 37.0 76.1 36.1 75.9 31.8 74.6 C 22.1 71.7 18.2 69.8 15.9 68.7 C 13.7 67.5 13.3 67.2 13.7 67.4 C 14.6 67.9 19.7 70.3 24.1 71.8 C 29.3 73.7 37.2 76.0 48.8 78.6 C 48.4 78.6 47.5 78.4 45.8 78.1 C 56.4 80.5 71.3 83.5 91.4 86.3 C 101.5 87.8 112.7 89.2 125.2 90.6 C 128.3 91.0 131.5 91.3 134.8 91.6 C 136.4 91.8 138.5 92.0 139.3 92.1 C 140.0 92.2 140.7 92.2 141.5 92.3 C 144.4 92.6 147.3 92.9 150.3 93.1 C 148.1 92.9 145.6 92.6 143.4 92.4 C 141.2 92.2 139.7 92.0 137.5 91.7 C 140.8 92.1 140.9 92.1 141.8 92.1 C 142.7 92.2 143.3 92.3 143.8 92.3 C 144.7 92.4 144.9 92.4 144.9 92.4 C 145.0 92.3 144.6 92.2 148.5 92.6 C 159.5 93.6 167.9 94.3 170.2 94.4 C 172.5 94.6 168.4 94.3 155.6 93.1 C 179.5 95.2 195.8 96.1 222.0 97.5 C 232.0 98.1 226.5 97.8 223.6 97.7 C 241.0 98.9 282.8 100.8 286.8 101.1 C 288.8 101.2 259.9 100.0 234.5 98.6 C 209.1 97.1 187.2 95.5 196.8 96.2 C 204.6 96.8 221.2 97.9 227.6 98.4 C 213.4 97.5 196.4 96.3 187.8 95.7 C 197.2 96.5 210.7 97.4 218.3 98.0 C 208.8 97.4 202.5 96.9 199.8 96.8 C 213.2 97.8 223.5 98.5 240.3 99.4 C 247.8 99.8 233.9 98.9 249.9 99.8 C 252.8 99.8 239.4 99.2 240.4 99.1 C 253.2 99.8 279.5 101.0 286.1 101.3 C 292.6 101.5 270.0 100.6 269.5 100.5 C 320.6 102.8 382.9 103.9 402.2 104.1 C 421.6 104.3 403.4 104.1 395.2 103.9 C 417.7 104.2 434.8 104.3 461.7 104.2 C 479.0 104.2 472.1 104.2 465.6 104.1 C 470.2 104.1 474.2 104.1 476.9 104.0 C 478.8 104.0 483.7 104.0 487.1 103.9 C 476.5 103.9 456.8 104.0 448.2 104.0 C 464.0 103.9 501.7 103.7 515.3 103.4 C 493.6 103.6 470.2 103.8 445.7 103.7 C 493.4 103.7 542.3 103.3 579.4 101.9 C 572.8 102.0 569.8 102.0 564.3 102.1 C 578.6 101.8 599.5 101.3 611.8 100.6 C 618.7 100.3 632.1 99.6 645.3 99.0 C 622.2 100.0 606.2 100.6 589.4 101.2 C 589.8 101.1 591.3 101.0 594.2 100.9 C 556.6 101.9 534.4 102.8 506.7 103.2 C 504.6 103.2 502.4 103.2 500.2 103.2 C 491.3 103.2 522.8 102.8 525.9 102.7 C 485.1 103.3 440.1 103.3 419.9 103.0 C 468.7 103.3 512.0 102.9 548.1 101.9 C 538.8 101.9 502.2 102.7 484.6 102.7 C 564.5 101.9 571.7 101.0 578.0 100.8 C 572.0 100.9 566.1 101.1 559.9 101.2 C 561.4 101.1 562.9 101.1 564.5 101.0 C 598.8 100.1 637.6 98.4 635.6 98.4 C 634.1 98.4 604.0 99.8 571.0 100.7 C 574.4 100.5 577.9 100.3 581.4 100.1 C 619.9 98.9 661.9 96.6 696.6 94.5 C 690.9 94.7 693.9 94.5 701.0 93.9 C 690.2 94.6 674.4 95.5 662.3 96.1 C 666.4 95.8 673.9 95.4 676.2 95.2 C 670.2 95.5 660.7 96.0 657.6 96.0 C 674.8 95.1 692.8 94.0 709.8 92.7 C 713.2 92.3 702.4 93.2 703.3 93.0 C 719.5 91.8 741.3 90.2 752.2 89.0 C 739.6 90.0 713.7 92.1 705.4 92.6 C 710.8 92.2 716.1 91.7 721.5 91.3 C 732.3 90.4 737.4 90.0 725.4 90.9 C 718.9 91.3 719.0 91.3 720.6 91.1 C 728.0 90.5 752.9 88.4 752.2 88.2 C 746.0 88.7 720.8 90.8 714.2 91.1 C 719.1 90.6 732.2 89.6 733.5 89.4 C 705.5 91.7 706.0 91.4 698.6 92.1 C 701.8 91.9 710.1 91.2 709.9 91.4 C 692.0 92.6 673.4 93.8 653.7 94.8 C 653.7 94.8 653.7 94.8 653.7 94.8 C 653.7 94.8 653.7 94.8 653.7 94.8 C 653.7 94.8 653.7 94.8 653.7 94.8 C 655.4 94.5 654.8 94.4 653.0 94.4 C 661.4 94.0 670.1 93.5 685.2 92.6 C 681.1 92.6 667.2 93.4 654.0 94.2 C 654.1 94.1 654.2 94.1 654.3 94.0 C 675.7 93.0 707.1 90.9 727.0 89.2 C 717.9 89.9 683.3 92.3 658.3 93.6 C 659.1 93.5 659.9 93.4 660.7 93.4 C 629.4 95.1 590.8 96.3 552.9 97.3 C 571.1 96.6 592.3 96.2 615.1 95.2 C 625.6 94.8 635.1 94.3 645.0 93.7 C 659.2 93.1 686.7 91.6 710.5 89.9 C 734.3 88.2 754.3 86.3 758.4 85.9 C 762.9 85.4 747.2 86.9 729.2 88.3 C 711.2 89.7 690.9 91.0 690.7 91.0 C 690.2 90.9 727.2 88.3 709.9 89.5 C 700.9 90.2 680.7 91.5 665.6 92.4 C 665.1 92.3 664.5 92.1 664.0 92.0 C 677.2 91.3 692.3 90.3 693.0 90.5 C 699.3 90.1 712.3 89.3 714.2 89.0 C 712.1 89.1 709.0 89.4 708.9 89.3 C 712.0 89.1 716.3 88.8 716.7 88.7 C 701.8 89.7 680.6 91.0 663.2 92.0 C 661.7 92.0 660.2 92.0 658.7 92.0 C 659.0 92.0 672.6 91.2 684.0 90.4 C 695.9 89.7 671.1 91.1 650.6 92.2 C 647.4 92.3 644.1 92.4 640.7 92.4 C 647.9 92.1 656.2 91.7 665.7 91.2 C 676.8 90.5 676.5 90.3 687.3 89.6 C 667.3 90.8 642.2 92.0 621.5 92.9 C 614.0 93.1 606.4 93.2 598.5 93.4 C 616.0 92.7 631.7 91.9 641.0 91.4 C 648.5 91.0 656.2 90.7 658.9 90.4 C 652.0 90.7 669.9 89.7 667.2 89.7 C 657.5 90.4 637.8 91.3 630.6 91.8 C 614.8 92.5 597.2 93.2 581.4 93.6 C 579.4 93.7 577.3 93.7 575.3 93.7 C 588.7 93.3 601.4 92.9 615.3 92.3 C 609.0 92.2 570.0 93.6 540.9 94.3 C 481.7 95.3 419.9 96.2 360.9 95.0 C 358.5 95.0 355.1 94.9 351.3 94.7 C 347.0 94.6 342.8 94.4 338.4 94.2 C 352.4 94.6 365.0 94.8 375.5 94.9 C 333.5 94.0 435.9 95.5 442.6 95.3 C 408.2 95.1 358.6 94.4 310.1 92.7 C 261.5 91.0 214.7 88.2 181.7 85.5 C 197.6 86.7 202.8 87.1 185.7 85.7 C 181.0 85.3 176.4 84.9 171.8 84.5 C 237.7 89.9 319.1 93.4 382.9 94.1 C 345.0 93.4 289.4 91.6 274.5 90.7 C 285.0 91.2 300.5 91.8 302.6 91.8 C 293.3 91.3 273.1 90.5 253.6 89.5 C 234.2 88.5 215.5 87.4 207.2 86.7 C 247.9 89.4 300.1 91.8 351.5 93.1 C 402.9 94.3 452.8 94.4 487.5 93.9 C 435.0 94.4 372.6 93.7 315.2 91.8 C 257.8 89.9 206.1 86.7 169.5 83.7 C 182.2 84.8 182.4 84.8 175.7 84.4 C 164.2 83.5 153.2 82.5 142.3 81.4 C 141.6 81.4 141.0 81.3 140.3 81.2 C 139.6 81.2 137.6 80.9 136.1 80.8 C 133.1 80.5 130.1 80.2 127.1 79.8 C 121.3 79.2 115.6 78.5 110.2 77.9 C 99.3 76.5 89.3 75.1 80.1 73.7 C 76.4 73.1 75.2 72.8 77.1 73.1 C 79.0 73.4 83.8 74.2 93.5 75.5 C 109.4 77.7 120.6 79.0 126.7 79.6 C 123.5 79.2 112.0 77.9 99.9 76.3 C 87.8 74.6 75.5 72.7 67.2 71.2 C 58.9 69.7 54.3 68.7 55.9 69.0 C 57.4 69.3 63.9 71.0 87.7 74.5 C 99.6 76.2 114.0 78.1 130.8 79.9 C 132.9 80.1 135.0 80.3 137.2 80.6 C 138.2 80.7 139.7 80.8 140.2 80.9 C 140.7 80.9 141.2 81.0 141.6 81.0 C 143.6 81.2 145.5 81.4 147.5 81.6 C 151.4 82.0 155.5 82.4 159.5 82.7 C 175.6 84.2 192.1 85.4 205.2 86.3 C 218.3 87.2 227.9 87.7 230.2 87.8 C 232.4 87.9 227.1 87.7 211.6 86.6 C 180.6 84.5 160.9 82.6 152.2 81.7 C 143.5 80.8 145.4 81.0 161.0 82.4 C 176.6 83.8 210.8 86.3 238.2 87.8 C 265.7 89.3 285.1 90.0 266.0 89.1 C 246.9 88.2 217.9 86.5 190.1 84.4 C 176.2 83.3 162.6 82.1 150.3 80.9 C 147.3 80.6 144.3 80.3 141.4 80.0 C 140.7 80.0 139.8 79.9 138.2 79.7 C 136.6 79.5 134.9 79.4 133.4 79.2 C 130.2 78.9 127.2 78.5 124.3 78.2 C 112.6 76.9 102.5 75.6 93.9 74.4 C 76.7 72.0 72.6 71.1 72.2 71.1 C 71.8 71.1 75.9 71.9 79.3 72.5 C 82.8 73.2 85.4 73.6 81.2 73.1 C 77.1 72.5 65.1 70.8 48.2 66.9 C 31.4 63.1 26.9 60.9 24.4 59.9 C 21.9 58.8 22.2 58.9 23.3 59.3 C 25.4 60.2 32.5 62.6 28.3 61.1 C 24.9 60.0 21.5 58.5 18.9 57.1 C 16.3 55.6 14.8 54.0 14.7 53.8 C 14.6 53.6 14.2 55.0 15.0 54.1 C 15.8 53.1 18.7 51.0 23.4 49.0 C 30.0 46.2 41.7 42.8 56.2 39.9 C 70.8 36.9 88.1 34.3 100.8 32.6 C 100.3 32.7 92.4 33.8 82.9 35.3 C 73.4 36.7 62.5 38.7 54.2 40.4 C 45.9 42.2 40.0 43.8 37.6 44.5 C 35.2 45.2 35.5 45.0 42.4 43.3 C 59.2 39.0 84.2 34.7 113.7 31.1 C 121.0 30.2 128.7 29.4 136.4 28.6 C 138.4 28.4 140.2 28.2 141.0 28.1 C 141.9 28.0 142.7 27.9 143.6 27.8 C 145.3 27.7 146.9 27.5 148.6 27.3 C 155.1 26.7 161.3 26.1 166.9 25.6 C 189.1 23.7 200.5 22.9 185.3 23.9 C 226.3 20.8 259.9 19.1 288.8 17.9 C 333.8 16.3 389.0 15.3 395.1 15.3 C 398.7 15.3 432.9 14.7 472.5 14.8 C 512.1 14.9 556.4 15.9 580.1 17.0 C 581.9 17.0 604.0 17.6 625.9 18.5 C 647.8 19.3 669.4 20.4 672.7 20.5 C 710.2 22.8 724.7 24.2 739.2 25.4 C 746.4 26.1 753.5 26.7 762.7 27.6 C 765.0 27.9 767.4 28.1 769.9 28.4 C 771.2 28.5 775.2 28.9 778.3 29.2 C 781.3 29.6 784.4 29.9 787.5 30.3 C 800.1 31.7 813.4 33.4 826.9 35.4 C 849.4 38.9 862.9 41.9 872.2 44.5 C 881.5 47.0 886.5 49.0 889.6 50.6 C 896.0 53.6 895.6 54.5 895.6 54.6 C 895.7 54.8 895.8 53.4 895.6 53.8 C 895.4 54.1 894.3 55.2 892.7 56.2 C 889.6 58.2 885.2 59.9 881.0 61.4 C 876.7 62.9 872.6 64.2 867.4 65.6 C 862.2 67.0 856.0 68.6 846.1 70.7 C 840.1 71.9 831.8 73.4 823.6 74.7 C 815.3 76.1 807.2 77.3 802.9 78.0 C 786.1 81.1 776.7 83.3 782.7 84.2 C 782.7 84.2 782.7 84.2 782.7 84.2 Z M 645.0 95.5 C 656.8 95.0 677.8 93.8 689.7 93.1 C 676.1 94.2 658.8 95.1 640.7 95.9 C 642.1 95.8 643.5 95.6 645.0 95.5 C 645.0 95.5 645.0 95.5 645.0 95.5 Z M 550.1 95.8 C 558.5 95.6 568.7 95.6 578.0 95.2 C 586.9 95.0 596.0 94.7 609.2 94.1 C 608.1 94.1 586.2 94.8 569.0 95.2 C 569.0 95.2 569.0 95.1 569.0 95.1 C 577.3 94.8 587.2 94.4 598.8 94.0 C 602.8 93.9 606.7 93.8 610.7 93.6 C 611.1 93.7 604.9 94.0 602.5 94.1 C 605.6 94.1 615.8 93.8 628.8 93.3 C 630.4 93.3 632.0 93.2 633.6 93.2 C 635.4 93.3 625.6 93.8 636.5 93.3 C 628.8 93.8 608.6 94.5 595.8 94.9 C 610.1 94.1 555.6 96.0 542.0 96.1 C 544.6 96.0 547.3 95.9 550.1 95.8 Z M 442.7 103.6 C 435.1 103.6 427.5 103.5 419.7 103.5 C 430.9 103.6 439.6 103.6 447.5 103.6 C 445.9 103.6 444.3 103.6 442.7 103.6 Z M 141.5 16.3 C 140.4 16.4 139.6 16.5 137.0 16.8 C 134.3 17.0 131.6 17.3 128.9 17.7 C 123.4 18.3 117.8 18.9 112.3 19.6 C 101.2 21.0 90.2 22.5 80.0 24.1 C 59.5 27.4 42.5 31.0 30.7 34.5 C 18.9 38.1 12.3 41.5 8.5 44.8 C 4.7 48.0 3.8 51.6 3.7 52.3 C 2.8 57.0 5.7 61.4 9.5 64.4 C 6.5 62.0 3.9 59.1 3.5 55.1 C 3.1 51.1 5.3 47.5 8.2 45.0 C 13.8 40.0 23.1 36.5 36.1 32.9 C 49.1 29.4 65.8 26.2 84.6 23.3 C 94.0 21.9 103.9 20.5 114.0 19.3 C 119.1 18.7 124.2 18.1 129.4 17.5 C 131.9 17.3 134.6 17.0 137.1 16.7 C 139.7 16.4 140.4 16.4 141.5 16.3 C 141.5 16.3 141.5 16.3 141.5 16.3 Z M 14.0 54.1 C 14.1 54.3 13.9 53.9 13.9 54.1 C 13.9 54.2 13.8 54.3 14.2 53.8 C 14.5 53.2 15.5 52.3 16.8 51.4 C 19.4 49.7 23.2 48.0 25.9 47.0 C 28.7 45.9 30.3 45.4 29.7 45.6 C 29.1 45.7 26.3 46.6 22.5 48.3 C 19.2 49.7 16.0 51.6 14.6 52.9 C 13.3 54.2 13.6 54.0 13.6 54.1 C 13.7 54.2 14.4 55.3 15.1 55.9 C 15.7 56.4 15.8 56.5 15.0 55.8 C 13.9 54.9 13.6 54.3 13.6 54.2 C 13.5 54.0 13.4 54.3 13.6 53.9 C 14.1 53.1 17.0 50.4 22.8 47.9 C 31.8 44.1 46.4 40.4 66.8 36.9 C 44.9 40.9 29.9 45.2 21.6 49.0 C 17.4 50.9 15.1 52.8 14.3 53.7 C 13.6 54.7 13.9 53.8 14.0 54.1 C 14.0 54.1 14.0 54.1 14.0 54.1 Z M 94.2 32.9 C 75.0 35.6 55.8 38.9 41.8 42.5 C 53.9 39.4 69.7 36.3 89.8 33.4 C 91.2 33.2 92.7 33.0 94.2 32.9 Z M 120.6 29.7 C 98.2 32.3 80.0 35.1 71.7 36.6 C 67.6 37.3 65.6 37.6 66.7 37.4 C 67.7 37.2 71.5 36.5 80.5 35.0 C 88.6 33.7 97.4 32.5 107.2 31.2 C 111.5 30.7 115.9 30.2 120.6 29.7 Z M 144.4 27.3 C 144.2 27.2 143.3 27.3 141.4 27.5 C 139.6 27.6 132.8 28.3 125.2 29.2 C 129.1 28.7 133.7 28.2 138.5 27.7 C 141.0 27.5 141.6 27.4 142.7 27.3 C 143.9 27.2 145.1 27.0 146.3 26.9 C 151.1 26.5 156.1 26.0 160.8 25.6 C 170.0 24.7 177.5 24.1 176.8 24.3 C 166.4 25.2 155.3 26.2 144.4 27.3 C 144.4 27.3 144.4 27.3 144.4 27.3 Z M 165.7 13.7 C 155.7 14.6 147.1 15.3 162.8 13.9 C 168.8 13.3 174.9 12.8 181.3 12.3 C 176.0 12.7 170.9 13.2 165.7 13.7 Z M 424.3 94.4 C 419.1 94.4 399.1 94.2 387.6 94.0 C 386.4 94.5 431.7 94.7 424.3 94.4 C 424.3 94.4 424.3 94.4 424.3 94.4 Z M 499.3 94.1 C 494.2 94.1 474.2 94.3 462.4 94.4 C 461.2 94.9 506.6 94.2 499.3 94.1 C 499.3 94.1 499.3 94.1 499.3 94.1 Z M 580.2 17.0 C 580.2 17.0 580.1 17.0 580.1 17.0 C 580.1 17.0 580.2 17.0 580.2 17.0 C 580.2 17.0 580.2 17.0 580.2 17.0 Z M 580.2 17.0 " fill="#FF6762"></path></g></svg>