<?xml version="1.0" encoding="UTF-8" standalone="no"?><svg xmlns="http://www.w3.org/2000/svg" xmlns:xlink="http://www.w3.org/1999/xlink" clip-rule="evenodd" stroke-miterlimit="10" viewBox="0 0 1024 768"><desc>SVG generated by Keynote</desc><defs></defs><g transform="matrix(1.00, 0.00, -0.00, -1.00, 0.0, 768.0)"><path d="M 0.0 768.0 L 1024.0 768.0 L 1024.0 0.0 L 0.0 0.0 Z M 0.0 768.0 " fill="#FF6762"></path><image xlink:href="../../CB309311-11F8-41B1-86C5-4D5D0BD95B38/assets/BF467B399E117C85637B872BDEDB94E0.png" width="955.00" height="150.00" transform="matrix(1.00, 0.00, -0.00, -1.00, 26.1, 189.1)"></image><g><clipPath id="clip0x6080006b2c00"><path d="M 24.0 726.0 L 981.0 726.0 L 981.0 439.0 L 24.0 439.0 Z M 23.6 725.9 "></path></clipPath><g clip-path="url(#clip0x6080006b2c00)"><image xlink:href="../../C62EE65B-0695-4C1F-8EEB-7C5841678DD9/assets/C49BCFFEB17F09285DD7AFAED22E7BE2.png" width="1055.00" height="316.00" transform="matrix(0.91, 0.00, -0.00, -0.91, 23.6, 725.9)"></image></g></g><image xlink:href="../../CB309311-11F8-41B1-86C5-4D5D0BD95B38/assets/A5750D761A4FFD4190EE6DDFC0E98BC7.png" width="1148.00" height="278.00" transform="matrix(0.83, 0.00, -0.00, -0.83, 26.1, 429.4)"></image><path d="M 721.5 542.9 C 724.8 542.8 739.1 542.3 739.2 542.1 C 733.9 542.3 722.5 542.7 721.5 542.9 C 721.5 542.9 721.5 542.9 721.5 542.9 Z M 692.2 544.0 C 697.5 543.9 709.2 543.5 712.8 543.2 C 706.7 543.5 694.1 543.7 692.2 544.0 C 692.2 544.0 692.2 544.0 692.2 544.0 Z M 736.7 541.8 C 744.3 541.4 758.2 540.9 761.5 540.5 C 754.1 541.0 740.2 541.5 736.7 541.8 C 736.7 541.8 736.7 541.8 736.7 541.8 Z M 323.9 539.9 C 326.8 540.3 339.6 541.2 339.6 541.0 C 334.9 540.7 324.8 539.9 323.9 539.9 C 323.9 539.9 323.9 539.9 323.9 539.9 Z M 398.4 544.0 C 403.6 544.4 414.9 544.8 418.5 544.8 C 412.4 544.6 400.3 544.0 398.4 544.0 C 398.4 544.0 398.4 544.0 398.4 544.0 Z M 445.0 546.0 C 456.1 546.3 468.2 546.6 465.9 546.4 C 462.3 546.4 446.2 545.8 445.0 546.0 C 445.0 546.0 445.0 546.0 445.0 546.0 Z M 727.2 534.6 C 715.7 535.1 707.1 535.3 699.2 535.6 C 659.1 536.9 719.6 535.2 727.2 534.6 C 727.2 534.6 727.2 534.6 727.2 534.6 Z M 530.8 547.2 C 522.5 547.1 515.9 547.0 511.9 547.1 C 519.6 547.2 530.4 547.3 530.8 547.2 C 530.8 547.2 530.8 547.2 530.8 547.2 Z M 602.7 547.1 C 604.6 547.2 647.1 546.6 670.2 545.9 C 650.5 546.4 600.8 547.0 602.7 547.1 C 602.7 547.1 602.7 547.1 602.7 547.1 Z M 630.6 537.1 C 603.2 537.6 558.9 537.7 538.9 537.6 C 519.1 537.5 574.6 538.2 625.2 537.5 C 676.0 536.8 634.2 537.1 654.7 536.6 C 675.0 536.1 635.1 536.8 614.5 537.1 C 594.0 537.4 628.1 537.0 630.6 537.1 C 630.6 537.1 630.6 537.1 630.6 537.1 Z M 631.8 536.4 C 641.7 536.3 650.3 536.1 655.9 535.9 C 645.7 536.0 635.9 536.1 631.8 536.4 C 631.8 536.4 631.8 536.4 631.8 536.4 Z M 861.3 529.7 C 864.3 530.4 876.0 530.0 890.1 529.0 C 904.2 527.9 920.3 526.2 933.1 524.0 C 939.5 522.9 945.1 521.7 950.0 520.5 C 958.6 518.1 964.5 515.9 968.3 511.9 C 970.3 509.9 971.7 506.7 971.0 503.6 C 970.4 500.5 968.4 498.3 966.1 496.5 C 956.9 489.4 938.0 484.8 906.7 480.0 C 894.3 478.1 880.1 476.3 863.5 474.6 C 860.4 474.2 857.2 473.9 853.9 473.6 C 850.7 473.3 849.7 473.2 848.3 473.0 C 845.4 472.8 842.5 472.5 839.6 472.2 C 833.7 471.7 827.6 471.2 821.5 470.7 C 809.2 469.7 796.4 468.8 783.1 468.0 C 774.4 467.5 765.4 467.0 756.0 466.5 C 723.2 464.6 689.8 463.8 654.8 463.0 C 637.4 462.7 619.4 462.3 600.8 462.0 C 591.6 461.8 551.8 461.8 537.7 462.1 C 551.3 461.6 486.5 462.6 489.4 462.6 C 482.3 462.9 474.9 463.1 467.5 463.3 C 460.1 463.6 469.4 463.4 478.8 463.2 C 470.5 463.5 462.2 463.7 453.9 464.0 C 445.1 464.3 436.5 464.5 427.6 464.9 C 398.8 465.8 369.2 467.4 345.0 469.2 C 336.8 469.8 326.9 470.5 316.3 471.4 C 311.0 471.8 305.6 472.3 300.0 472.8 C 298.6 472.9 297.3 473.0 295.8 473.2 C 295.1 473.2 294.5 473.3 292.9 473.4 C 291.3 473.6 289.7 473.7 288.1 473.9 C 281.8 474.5 275.7 475.2 269.7 475.9 C 246.1 478.5 226.2 481.6 211.3 484.8 C 196.4 488.1 186.7 491.2 180.6 495.2 C 177.5 497.3 175.0 499.7 174.1 503.4 C 173.3 507.1 175.1 510.7 177.2 512.8 C 181.2 517.0 186.7 519.0 191.8 520.7 C 196.9 522.5 201.5 523.6 203.4 524.1 C 205.4 524.6 204.5 524.4 200.6 523.3 C 192.0 521.0 188.4 519.4 186.4 518.5 C 184.3 517.5 184.0 517.3 184.4 517.4 C 185.2 517.8 189.8 519.7 193.7 521.0 C 198.4 522.5 205.5 524.4 215.9 526.5 C 215.5 526.5 214.7 526.4 213.2 526.1 C 222.7 528.2 236.0 530.5 253.9 532.9 C 262.9 534.1 273.0 535.3 284.1 536.4 C 286.9 536.7 289.7 536.9 292.6 537.2 C 295.5 537.5 296.2 537.5 297.5 537.7 C 300.0 537.9 302.6 538.1 305.2 538.3 C 301.3 537.9 296.5 537.5 294.7 537.2 C 305.1 538.2 296.8 537.2 303.7 537.8 C 323.0 539.4 332.6 540.1 309.9 538.2 C 331.0 539.8 345.3 540.5 368.4 541.6 C 377.1 542.1 372.4 541.8 369.8 541.8 C 385.1 542.8 421.9 544.3 425.4 544.6 C 427.1 544.7 401.7 543.7 379.4 542.6 C 357.1 541.4 337.7 540.0 346.2 540.7 C 353.1 541.2 367.7 542.0 373.3 542.4 C 360.8 541.7 345.9 540.8 338.3 540.3 C 346.5 540.9 358.4 541.7 365.1 542.1 C 356.8 541.6 351.2 541.3 348.8 541.2 C 360.6 542.0 369.7 542.6 384.5 543.3 C 391.1 543.6 378.8 542.9 392.9 543.6 C 395.5 543.6 383.7 543.1 384.5 543.0 C 395.8 543.6 419.0 544.6 424.8 544.7 C 430.5 544.9 410.6 544.2 410.2 544.1 C 455.1 546.0 509.9 546.9 526.8 547.0 C 543.9 547.1 527.9 547.0 520.7 546.8 C 540.5 547.0 555.5 547.1 579.2 547.1 C 594.4 547.0 588.3 547.0 582.6 547.0 C 586.6 546.9 590.2 546.9 592.5 546.9 C 594.2 546.8 598.5 546.8 601.5 546.7 C 592.2 546.8 574.9 546.8 567.3 546.8 C 581.2 546.7 614.3 546.6 626.3 546.3 C 607.2 546.4 586.6 546.6 565.1 546.5 C 607.0 546.5 650.0 546.2 682.6 545.0 C 676.8 545.1 674.2 545.1 669.4 545.1 C 681.9 544.9 700.2 544.5 711.1 543.9 C 717.1 543.7 728.9 543.1 740.5 542.6 C 720.2 543.4 706.2 543.9 691.4 544.4 C 691.7 544.3 693.1 544.3 695.6 544.2 C 662.6 544.9 643.0 545.7 618.7 546.1 C 616.8 546.1 615.0 546.1 613.0 546.1 C 605.2 546.0 632.9 545.7 635.6 545.6 C 599.8 546.1 560.1 546.1 542.4 545.8 C 585.3 546.1 623.4 545.8 655.1 544.9 C 646.9 544.9 614.7 545.5 599.3 545.5 C 669.5 544.9 675.8 544.1 681.4 543.9 C 676.1 544.0 670.9 544.1 665.4 544.3 C 666.8 544.2 668.1 544.1 669.5 544.1 C 699.7 543.3 733.7 541.9 732.0 541.9 C 730.7 542.0 704.3 543.0 675.2 543.8 C 678.2 543.6 681.3 543.4 684.4 543.3 C 718.2 542.3 755.1 540.4 785.6 538.6 C 780.6 538.8 783.2 538.6 789.5 538.1 C 780.0 538.6 766.1 539.4 755.4 539.8 C 759.1 539.6 765.6 539.3 767.7 539.1 C 762.4 539.3 754.0 539.8 751.3 539.8 C 766.4 539.0 782.2 538.1 797.2 537.0 C 800.2 536.7 790.7 537.4 791.5 537.3 C 805.8 536.3 824.9 534.9 834.5 534.0 C 823.4 534.8 800.6 536.5 793.3 536.9 C 798.1 536.5 802.7 536.2 807.5 535.8 C 817.0 535.1 821.5 534.7 810.9 535.4 C 805.2 535.8 805.3 535.7 806.7 535.6 C 813.2 535.0 835.1 533.3 834.4 533.1 C 829.0 533.6 806.9 535.3 801.1 535.5 C 805.4 535.0 816.9 534.3 818.0 534.0 C 793.4 536.0 793.8 535.7 787.4 536.2 C 790.2 536.1 797.5 535.6 797.2 535.7 C 781.5 536.7 765.2 537.6 747.9 538.5 C 747.9 538.5 747.9 538.5 747.9 538.5 C 747.9 538.5 747.9 538.5 747.9 538.5 C 747.9 538.5 747.9 538.5 747.9 538.5 C 749.4 538.2 748.9 538.1 747.3 538.1 C 754.7 537.7 762.3 537.3 775.6 536.6 C 772.0 536.5 759.7 537.3 748.1 537.9 C 748.2 537.8 748.3 537.8 748.4 537.7 C 767.2 536.9 794.8 535.2 812.3 533.8 C 804.3 534.3 773.9 536.3 751.9 537.4 C 752.6 537.3 753.3 537.2 754.0 537.1 C 726.5 538.5 692.6 539.5 659.3 540.3 C 675.3 539.7 694.0 539.4 714.0 538.6 C 723.2 538.2 731.6 537.8 740.3 537.3 C 752.7 536.8 776.9 535.6 797.8 534.2 C 818.7 532.9 836.3 531.3 839.9 531.0 C 843.8 530.5 830.0 531.8 814.2 532.9 C 798.5 534.0 780.6 535.1 780.4 535.0 C 780.0 535.0 812.4 532.8 797.2 533.9 C 789.3 534.4 771.6 535.5 758.3 536.2 C 757.9 536.1 757.4 535.9 756.9 535.8 C 768.5 535.2 781.8 534.4 782.4 534.6 C 787.9 534.3 799.4 533.6 801.0 533.4 C 799.2 533.5 796.4 533.7 796.4 533.6 C 799.1 533.4 802.9 533.2 803.3 533.1 C 790.2 534.0 771.5 535.0 756.2 535.8 C 754.9 535.7 753.6 535.7 752.3 535.7 C 752.6 535.7 764.5 535.0 774.5 534.4 C 785.0 533.8 763.2 535.0 745.2 535.8 C 742.3 535.9 739.5 536.0 736.5 536.0 C 742.8 535.7 750.0 535.4 758.4 535.0 C 768.2 534.4 767.9 534.2 777.4 533.6 C 759.9 534.6 737.8 535.6 719.6 536.3 C 713.0 536.4 706.3 536.5 699.3 536.6 C 714.7 536.1 728.6 535.4 736.7 534.9 C 743.3 534.7 750.1 534.4 752.5 534.2 C 746.4 534.4 762.1 533.6 759.7 533.5 C 751.2 534.1 733.9 534.8 727.5 535.3 C 713.7 535.9 698.2 536.4 684.3 536.8 C 682.6 536.8 680.8 536.8 679.0 536.9 C 690.8 536.5 701.9 536.2 714.2 535.6 C 708.6 535.6 674.3 536.7 648.7 537.3 C 596.7 538.1 542.4 538.9 490.6 538.0 C 488.4 538.0 485.4 537.9 482.1 537.8 C 478.4 537.6 474.6 537.5 470.8 537.3 C 483.1 537.6 494.2 537.8 503.4 537.9 C 466.5 537.1 556.5 538.3 562.4 538.1 C 532.1 537.9 488.6 537.4 445.9 536.0 C 403.2 534.6 362.0 532.4 332.9 530.1 C 346.9 531.1 351.5 531.4 336.4 530.3 C 332.3 530.0 328.3 529.6 324.2 529.3 C 382.3 533.6 453.9 536.6 509.9 537.1 C 476.6 536.5 427.7 535.0 414.6 534.3 C 423.8 534.6 437.4 535.2 439.3 535.1 C 431.1 534.8 413.4 534.1 396.2 533.3 C 379.1 532.5 362.7 531.6 355.4 531.0 C 391.2 533.2 437.1 535.1 482.3 536.1 C 527.5 537.1 571.4 537.2 601.9 536.8 C 555.7 537.2 500.9 536.6 450.4 535.1 C 399.9 533.5 354.4 530.9 322.2 528.5 C 333.4 529.4 333.6 529.5 327.6 529.1 C 317.5 528.4 307.8 527.6 298.3 526.8 C 297.1 526.7 296.5 526.6 293.8 526.3 C 291.1 526.1 288.4 525.8 285.8 525.6 C 280.6 525.0 275.6 524.5 270.7 524.0 C 261.0 522.9 252.1 521.7 243.9 520.6 C 240.6 520.1 239.5 519.9 241.2 520.1 C 242.9 520.3 247.2 521.0 255.8 522.1 C 270.0 523.8 280.0 524.9 285.4 525.3 C 282.6 525.0 272.3 524.0 261.6 522.6 C 250.8 521.3 239.8 519.7 232.4 518.5 C 225.0 517.2 220.9 516.4 222.2 516.7 C 223.6 516.9 229.5 518.3 250.7 521.2 C 261.3 522.6 274.1 524.1 289.1 525.6 C 290.9 525.7 292.9 525.9 294.8 526.1 C 296.7 526.3 296.8 526.3 297.7 526.4 C 299.4 526.5 301.1 526.7 302.8 526.8 C 306.3 527.1 309.8 527.5 313.4 527.7 C 327.6 528.9 342.1 529.9 353.6 530.6 C 376.7 532.0 386.5 532.6 359.3 530.8 C 332.0 529.1 314.7 527.6 307.0 526.9 C 299.3 526.1 301.0 526.3 314.7 527.4 C 328.4 528.5 358.5 530.5 382.7 531.7 C 406.9 532.9 423.9 533.5 407.1 532.7 C 390.3 532.0 364.8 530.6 340.3 528.9 C 328.1 528.0 316.1 527.1 305.3 526.1 C 302.6 525.9 300.0 525.6 297.5 525.4 C 294.9 525.2 288.5 524.5 283.3 524.0 C 272.9 522.9 263.9 521.9 256.2 520.9 C 240.8 518.9 237.2 518.2 236.8 518.3 C 236.5 518.3 240.1 518.9 243.2 519.5 C 246.3 520.0 248.6 520.4 244.9 519.9 C 241.2 519.4 230.5 518.1 215.4 514.9 C 200.3 511.8 196.3 510.0 194.1 509.2 C 191.9 508.3 192.1 508.4 193.1 508.7 C 195.0 509.4 201.3 511.4 197.6 510.2 C 194.6 509.2 191.5 508.1 189.2 506.9 C 186.8 505.7 185.5 504.3 185.6 504.5 C 185.6 504.5 185.9 505.2 185.8 505.8 C 185.7 506.4 185.5 506.6 185.7 506.3 C 186.2 505.8 188.6 504.1 192.7 502.5 C 198.4 500.2 208.6 497.4 221.5 495.0 C 234.3 492.6 249.6 490.4 260.8 489.1 C 260.4 489.2 253.4 490.0 245.0 491.3 C 236.6 492.5 227.0 494.1 219.6 495.5 C 212.3 497.0 207.2 498.2 205.1 498.8 C 202.9 499.4 203.2 499.2 209.3 497.8 C 224.0 494.3 246.1 490.8 272.1 487.9 C 278.7 487.2 285.4 486.5 292.3 485.8 C 294.0 485.6 295.6 485.5 296.3 485.4 C 297.1 485.3 297.8 485.3 298.6 485.2 C 300.0 485.1 301.5 484.9 302.9 484.8 C 308.7 484.3 314.2 483.8 319.1 483.4 C 338.6 481.8 348.6 481.2 335.2 482.0 C 371.2 479.4 400.8 478.1 426.2 477.1 C 465.7 475.8 514.2 475.0 519.5 475.0 C 522.7 475.0 552.8 474.5 587.6 474.6 C 622.4 474.7 661.3 475.5 682.1 476.4 C 683.7 476.4 703.2 476.9 722.5 477.6 C 741.7 478.3 760.7 479.1 763.7 479.2 C 796.6 481.0 809.4 482.2 822.1 483.2 C 828.5 483.8 834.8 484.3 842.8 485.0 C 844.8 485.2 846.9 485.4 849.2 485.6 C 851.5 485.8 858.2 486.5 863.8 487.1 C 875.0 488.2 886.9 489.6 898.9 491.3 C 919.0 494.1 931.1 496.6 939.4 498.6 C 947.7 500.7 952.1 502.3 955.0 503.6 C 960.6 506.0 960.2 506.7 960.2 506.6 C 960.1 506.4 960.2 504.3 960.2 504.3 C 960.2 504.3 959.3 505.2 958.0 506.0 C 955.4 507.5 951.6 509.0 947.9 510.2 C 944.2 511.4 940.5 512.4 936.0 513.6 C 931.4 514.8 926.0 516.1 917.3 517.8 C 912.0 518.9 904.7 520.1 897.4 521.2 C 890.1 522.3 882.9 523.3 879.2 524.0 C 864.3 526.7 856.0 528.7 861.3 529.7 C 861.3 529.7 861.3 529.7 861.3 529.7 Z M 740.2 539.1 C 750.6 538.7 769.1 537.7 779.6 537.2 C 767.6 538.1 752.4 538.8 736.5 539.5 C 737.7 539.3 739.0 539.2 740.2 539.1 C 740.2 539.1 740.2 539.1 740.2 539.1 Z M 656.8 538.8 C 664.3 538.7 673.2 538.6 681.4 538.4 C 689.2 538.2 697.2 538.0 708.8 537.5 C 707.8 537.4 688.6 537.9 673.4 538.3 C 673.4 538.3 673.4 538.2 673.4 538.2 C 680.8 537.9 689.5 537.6 699.7 537.3 C 703.1 537.2 706.6 537.1 710.1 537.0 C 710.4 537.1 705.0 537.3 702.9 537.4 C 705.6 537.4 714.6 537.2 726.0 536.8 C 727.4 536.8 728.8 536.7 730.2 536.7 C 731.8 536.8 723.2 537.2 732.8 536.8 C 726.0 537.3 708.3 537.8 697.0 538.2 C 709.6 537.5 661.7 539.0 649.7 539.1 C 652.1 539.0 654.4 538.9 656.8 538.8 Z M 562.5 546.4 C 555.8 546.4 549.1 546.4 542.2 546.3 C 552.1 546.4 559.7 546.4 566.7 546.4 C 565.3 546.4 563.9 546.4 562.5 546.4 Z M 296.7 473.6 C 295.7 473.7 295.0 473.8 292.7 474.0 C 290.4 474.3 287.9 474.5 285.5 474.8 C 280.7 475.3 275.8 475.8 270.9 476.4 C 261.1 477.5 251.4 478.8 242.3 480.1 C 224.3 482.7 209.2 485.7 198.8 488.6 C 188.5 491.5 182.6 494.3 179.2 497.1 C 175.7 499.9 174.8 503.3 174.8 504.0 C 174.0 508.5 177.0 512.4 180.5 514.8 C 177.7 512.9 175.2 510.4 174.6 506.6 C 174.1 502.9 176.3 499.5 178.9 497.3 C 184.0 493.0 192.1 490.2 203.6 487.3 C 215.1 484.4 229.8 481.7 246.4 479.4 C 254.7 478.2 263.4 477.1 272.4 476.1 C 276.9 475.6 281.4 475.1 286.0 474.7 C 288.2 474.4 290.5 474.2 292.8 474.0 C 295.1 473.8 295.7 473.7 296.7 473.6 C 296.7 473.6 296.7 473.6 296.7 473.6 Z M 185.0 504.8 C 184.9 504.8 184.9 504.4 185.0 505.2 C 185.1 505.7 184.7 506.2 184.9 505.9 C 185.1 505.6 185.9 504.9 187.0 504.2 C 189.2 502.8 192.5 501.5 194.9 500.6 C 197.2 499.7 198.6 499.3 198.1 499.5 C 197.6 499.6 195.1 500.3 191.8 501.7 C 189.0 502.8 186.2 504.4 185.2 505.3 C 184.2 506.2 184.8 505.4 184.7 505.1 C 184.6 504.8 185.2 505.7 185.7 506.1 C 186.3 506.6 186.4 506.6 185.6 506.1 C 184.7 505.4 184.5 504.9 184.6 505.1 C 184.6 505.3 184.5 506.0 184.5 505.8 C 184.7 505.6 187.1 503.4 192.1 501.3 C 199.9 498.3 212.8 495.3 230.8 492.5 C 211.4 495.7 198.2 499.2 191.1 502.3 C 187.5 503.8 185.5 505.4 185.1 505.9 C 184.6 506.4 185.0 504.8 185.0 504.8 C 185.0 504.8 185.0 504.8 185.0 504.8 Z M 254.9 489.2 C 238.0 491.4 221.1 494.1 208.8 497.0 C 219.4 494.5 233.3 492.0 251.1 489.6 C 252.3 489.5 253.6 489.3 254.9 489.2 Z M 278.3 486.6 C 258.4 488.8 242.4 491.1 235.1 492.2 C 231.4 492.8 229.8 493.1 230.7 492.9 C 231.6 492.8 235.0 492.2 242.9 491.0 C 250.0 489.9 257.8 488.9 266.4 487.8 C 270.2 487.4 274.1 487.0 278.3 486.6 Z M 299.3 484.7 C 299.1 484.6 298.3 484.7 296.7 484.8 C 295.0 484.9 289.1 485.5 282.3 486.2 C 285.8 485.8 289.8 485.4 294.1 485.0 C 296.3 484.8 296.8 484.8 297.8 484.7 C 298.8 484.6 299.9 484.5 300.9 484.4 C 305.1 484.0 309.6 483.6 313.7 483.2 C 321.8 482.6 328.4 482.1 327.8 482.2 C 318.6 482.9 308.9 483.8 299.3 484.7 C 299.3 484.7 299.3 484.7 299.3 484.7 Z M 317.9 471.5 C 309.2 472.2 301.6 472.8 315.4 471.6 C 320.7 471.2 326.0 470.7 331.6 470.3 C 327.0 470.7 322.5 471.1 317.9 471.5 Z M 546.3 537.2 C 541.7 537.2 524.2 537.1 514.1 537.0 C 513.0 537.5 552.8 537.5 546.3 537.2 C 546.3 537.2 546.3 537.2 546.3 537.2 Z M 612.2 536.9 C 607.7 537.0 590.1 537.1 579.8 537.2 C 578.7 537.7 618.6 537.1 612.2 536.9 C 612.2 536.9 612.2 536.9 612.2 536.9 Z M 682.3 476.4 C 682.2 476.4 682.2 476.4 682.1 476.4 C 682.2 476.4 682.2 476.4 682.3 476.4 C 682.3 476.4 682.3 476.4 682.3 476.4 Z M 682.3 476.4 " fill="#FF6762"></path><path d="M 719.6 375.4 C 723.4 375.4 739.6 374.7 739.8 374.5 C 733.8 374.8 720.8 375.2 719.6 375.4 C 719.6 375.4 719.6 375.4 719.6 375.4 Z M 686.3 376.8 C 692.4 376.7 705.6 376.1 709.8 375.8 C 702.8 376.2 688.5 376.5 686.3 376.8 C 686.3 376.8 686.3 376.8 686.3 376.8 Z M 737.0 374.2 C 745.7 373.8 761.4 373.1 765.2 372.7 C 756.8 373.2 740.9 373.9 737.0 374.2 C 737.0 374.2 737.0 374.2 737.0 374.2 Z M 267.4 371.1 C 270.7 371.5 285.3 372.7 285.3 372.5 C 279.9 372.1 268.5 371.1 267.4 371.1 C 267.4 371.1 267.4 371.1 267.4 371.1 Z M 352.2 376.3 C 358.0 376.7 370.9 377.2 375.0 377.3 C 368.1 377.0 354.3 376.2 352.2 376.3 C 352.2 376.3 352.2 376.3 352.2 376.3 Z M 405.1 378.6 C 417.8 379.1 431.4 379.5 428.9 379.2 C 424.8 379.2 406.5 378.5 405.1 378.6 C 405.1 378.6 405.1 378.6 405.1 378.6 Z M 726.2 367.1 C 713.1 367.8 703.3 368.0 694.3 368.3 C 648.7 369.9 717.5 367.8 726.2 367.1 C 726.2 367.1 726.2 367.1 726.2 367.1 Z M 502.7 380.3 C 493.2 380.2 485.7 380.1 481.2 380.1 C 489.9 380.3 502.2 380.5 502.7 380.3 C 502.7 380.3 502.7 380.3 502.7 380.3 Z M 584.5 380.2 C 586.6 380.3 635.0 379.7 661.2 378.9 C 638.9 379.4 582.4 380.1 584.5 380.2 C 584.5 380.2 584.5 380.2 584.5 380.2 Z M 616.2 370.2 C 585.0 370.8 534.7 370.8 511.9 370.7 C 489.3 370.6 552.6 371.4 610.1 370.6 C 667.9 369.8 620.3 370.1 643.6 369.6 C 666.7 369.0 621.3 369.9 597.9 370.2 C 574.6 370.6 613.4 370.1 616.2 370.2 C 616.2 370.2 616.2 370.2 616.2 370.2 Z M 617.6 369.5 C 628.9 369.3 638.6 369.1 645.0 368.9 C 633.4 369.1 622.3 369.2 617.6 369.5 C 617.6 369.5 617.6 369.5 617.6 369.5 Z M 878.7 360.2 C 882.0 360.8 895.3 360.2 911.3 358.7 C 927.2 357.3 945.4 355.0 960.0 352.2 C 967.3 350.8 973.6 349.3 979.1 347.8 C 988.9 344.8 995.6 341.9 999.8 337.3 C 1001.9 335.1 1003.3 331.8 1002.8 328.5 C 1002.3 325.2 1000.3 322.6 997.8 320.5 C 987.8 312.0 966.6 306.3 931.6 300.4 C 917.7 298.1 901.8 295.9 883.2 293.7 C 879.7 293.3 876.1 292.9 872.4 292.6 C 870.6 292.4 868.1 292.1 867.3 292.0 C 866.5 291.9 865.7 291.8 864.9 291.8 C 861.6 291.4 858.3 291.1 854.9 290.7 C 848.2 290.1 841.4 289.5 834.4 288.9 C 820.4 287.6 805.9 286.6 790.8 285.6 C 780.9 284.9 770.7 284.3 760.1 283.7 C 722.7 281.4 684.8 280.3 645.0 279.4 C 625.1 279.0 604.6 278.6 583.6 278.2 C 573.0 278.0 527.7 278.0 511.8 278.3 C 527.2 277.8 453.5 279.0 456.8 278.9 C 448.7 279.3 440.2 279.6 431.9 279.8 C 423.5 280.1 434.1 279.9 444.7 279.7 C 435.3 280.0 425.9 280.3 416.4 280.6 C 406.4 280.9 396.5 281.2 386.5 281.6 C 353.7 282.8 320.0 284.8 292.5 287.0 C 283.1 287.7 271.9 288.6 259.9 289.6 C 253.8 290.1 247.6 290.7 241.3 291.3 C 239.7 291.5 238.2 291.7 236.6 291.8 C 235.8 291.9 235.0 292.0 233.2 292.2 C 231.4 292.3 229.6 292.5 227.8 292.7 C 220.7 293.5 213.7 294.3 207.0 295.1 C 180.3 298.4 157.7 302.1 140.9 306.1 C 124.0 310.0 112.9 313.9 106.1 318.7 C 102.7 321.1 100.0 323.9 99.1 327.7 C 98.2 331.6 99.8 335.4 101.9 337.9 C 106.1 342.8 112.2 345.3 117.9 347.4 C 123.6 349.6 128.7 351.0 130.9 351.5 C 133.0 352.1 132.1 351.9 127.8 350.6 C 118.1 347.7 114.2 345.8 111.9 344.7 C 109.7 343.5 109.3 343.2 109.7 343.4 C 110.6 343.9 115.7 346.3 120.1 347.8 C 125.3 349.7 133.2 352.0 144.8 354.6 C 144.4 354.6 143.5 354.4 141.8 354.1 C 152.4 356.5 167.3 359.5 187.4 362.3 C 197.5 363.8 208.7 365.2 221.2 366.6 C 224.3 367.0 227.5 367.3 230.8 367.6 C 232.4 367.8 234.5 368.0 235.3 368.1 C 236.0 368.2 236.7 368.2 237.5 368.3 C 240.4 368.6 243.3 368.9 246.3 369.1 C 244.1 368.9 241.6 368.6 239.4 368.4 C 237.2 368.2 235.7 368.0 233.5 367.7 C 236.8 368.1 236.9 368.1 237.8 368.1 C 238.7 368.2 239.3 368.3 239.8 368.3 C 240.7 368.4 240.9 368.4 240.9 368.4 C 241.0 368.3 240.6 368.2 244.5 368.6 C 255.5 369.6 263.9 370.3 266.2 370.4 C 268.5 370.6 264.4 370.3 251.6 369.1 C 275.5 371.2 291.8 372.1 318.0 373.5 C 328.0 374.1 322.5 373.8 319.6 373.7 C 337.0 374.9 378.8 376.8 382.8 377.1 C 384.8 377.2 355.9 376.0 330.5 374.6 C 305.1 373.1 283.2 371.5 292.8 372.2 C 300.6 372.8 317.2 373.9 323.6 374.4 C 309.4 373.5 292.4 372.3 283.8 371.7 C 293.2 372.5 306.7 373.4 314.3 374.0 C 304.8 373.4 298.5 372.9 295.8 372.8 C 309.2 373.8 319.5 374.5 336.3 375.4 C 343.8 375.8 329.9 374.9 345.9 375.8 C 348.8 375.8 335.4 375.2 336.4 375.1 C 349.2 375.8 375.5 377.0 382.1 377.3 C 388.6 377.5 366.0 376.6 365.5 376.5 C 416.6 378.8 478.9 379.9 498.2 380.1 C 517.6 380.3 499.4 380.1 491.2 379.9 C 513.7 380.2 530.8 380.3 557.7 380.2 C 575.0 380.2 568.1 380.2 561.6 380.1 C 566.2 380.1 570.2 380.1 572.9 380.0 C 574.8 380.0 579.7 380.0 583.1 379.9 C 572.5 379.9 552.8 380.0 544.2 380.0 C 560.0 379.9 597.7 379.7 611.3 379.4 C 589.6 379.6 566.2 379.8 541.7 379.7 C 589.4 379.7 638.3 379.3 675.4 377.9 C 668.8 378.0 665.8 378.0 660.3 378.1 C 674.6 377.8 695.5 377.3 707.8 376.6 C 714.7 376.3 728.1 375.6 741.3 375.0 C 718.2 376.0 702.2 376.6 685.4 377.2 C 685.8 377.1 687.3 377.0 690.2 376.9 C 652.6 377.9 630.4 378.8 602.7 379.2 C 600.6 379.2 598.4 379.2 596.2 379.2 C 587.3 379.2 618.8 378.8 621.9 378.7 C 581.1 379.3 536.1 379.3 515.9 379.0 C 564.7 379.3 608.0 378.9 644.1 377.9 C 634.8 377.9 598.2 378.7 580.6 378.7 C 660.5 377.9 667.7 377.0 674.0 376.8 C 668.0 376.9 662.1 377.1 655.9 377.2 C 657.4 377.1 658.9 377.1 660.5 377.0 C 694.8 376.1 733.6 374.4 731.6 374.4 C 730.1 374.4 700.0 375.8 667.0 376.7 C 670.4 376.5 673.9 376.3 677.4 376.1 C 715.9 374.9 757.9 372.6 792.6 370.5 C 786.9 370.7 789.9 370.5 797.0 369.9 C 786.2 370.6 770.4 371.5 758.3 372.1 C 762.4 371.8 769.9 371.4 772.2 371.2 C 766.2 371.5 756.7 372.0 753.6 372.0 C 770.8 371.1 788.8 370.0 805.8 368.7 C 809.2 368.3 798.4 369.2 799.3 369.0 C 815.5 367.8 837.3 366.2 848.2 365.0 C 835.6 366.0 809.7 368.1 801.4 368.6 C 806.8 368.2 812.1 367.7 817.5 367.3 C 828.3 366.4 833.4 366.0 821.4 366.9 C 814.9 367.3 815.0 367.3 816.6 367.1 C 824.0 366.5 848.9 364.4 848.2 364.2 C 842.0 364.7 816.8 366.8 810.2 367.1 C 815.1 366.6 828.2 365.6 829.5 365.4 C 801.5 367.7 802.0 367.4 794.6 368.1 C 797.8 367.9 806.1 367.2 805.9 367.4 C 788.0 368.6 769.4 369.8 749.7 370.8 C 749.7 370.8 749.7 370.8 749.7 370.8 C 749.7 370.8 749.7 370.8 749.7 370.8 C 749.7 370.8 749.7 370.8 749.7 370.8 C 751.4 370.5 750.8 370.4 749.0 370.4 C 757.4 370.0 766.1 369.5 781.2 368.6 C 777.1 368.6 763.2 369.4 750.0 370.2 C 750.1 370.1 750.2 370.1 750.3 370.0 C 771.7 369.0 803.1 366.9 823.0 365.2 C 813.9 365.9 779.3 368.3 754.3 369.6 C 755.1 369.5 755.9 369.4 756.7 369.4 C 725.4 371.1 686.8 372.3 648.9 373.3 C 667.1 372.6 688.3 372.2 711.1 371.2 C 721.6 370.8 731.1 370.3 741.0 369.7 C 755.2 369.1 782.7 367.6 806.5 365.9 C 830.3 364.2 850.3 362.3 854.4 361.9 C 858.9 361.4 843.2 362.9 825.2 364.3 C 807.2 365.7 786.9 367.0 786.7 367.0 C 786.2 366.9 823.2 364.3 805.9 365.5 C 796.9 366.2 776.7 367.5 761.6 368.4 C 761.1 368.3 760.5 368.1 760.0 368.0 C 773.2 367.3 788.3 366.3 789.0 366.5 C 795.3 366.1 808.3 365.3 810.2 365.0 C 808.1 365.1 805.0 365.4 804.9 365.3 C 808.0 365.1 812.3 364.8 812.7 364.7 C 797.8 365.7 776.6 367.0 759.2 368.0 C 757.7 368.0 756.2 368.0 754.7 368.0 C 755.0 368.0 768.6 367.2 780.0 366.4 C 791.9 365.7 767.1 367.1 746.6 368.2 C 743.4 368.3 740.1 368.4 736.7 368.4 C 743.9 368.1 752.2 367.7 761.7 367.2 C 772.8 366.5 772.5 366.3 783.3 365.6 C 763.3 366.8 738.2 368.0 717.5 368.9 C 710.0 369.1 702.4 369.2 694.5 369.4 C 712.0 368.7 727.7 367.9 737.0 367.4 C 744.5 367.0 752.2 366.7 754.9 366.4 C 748.0 366.7 765.9 365.7 763.2 365.7 C 753.5 366.4 733.8 367.3 726.6 367.8 C 710.8 368.5 693.2 369.2 677.4 369.6 C 675.4 369.7 673.3 369.7 671.3 369.7 C 684.7 369.3 697.4 368.9 711.3 368.3 C 705.0 368.2 666.0 369.6 636.9 370.3 C 577.7 371.3 515.9 372.2 456.9 371.0 C 454.5 371.0 451.1 370.9 447.3 370.7 C 443.0 370.6 438.8 370.4 434.4 370.2 C 448.4 370.6 461.0 370.8 471.5 370.9 C 429.5 370.0 531.9 371.5 538.6 371.3 C 504.2 371.1 454.6 370.4 406.1 368.7 C 357.5 367.0 310.7 364.2 277.7 361.5 C 293.6 362.7 298.8 363.1 281.7 361.7 C 277.0 361.3 272.4 360.9 267.8 360.5 C 333.7 365.9 415.1 369.4 478.9 370.1 C 441.0 369.4 385.4 367.6 370.5 366.7 C 381.0 367.2 396.5 367.8 398.6 367.8 C 389.3 367.3 369.1 366.5 349.6 365.5 C 330.2 364.5 311.5 363.4 303.2 362.7 C 343.9 365.4 396.1 367.8 447.5 369.1 C 498.9 370.3 548.8 370.4 583.5 369.9 C 531.0 370.4 468.6 369.7 411.2 367.8 C 353.8 365.9 302.1 362.7 265.5 359.7 C 278.2 360.8 278.4 360.8 271.7 360.4 C 260.2 359.5 249.2 358.5 238.3 357.4 C 237.6 357.4 237.0 357.3 236.3 357.2 C 235.6 357.2 233.6 356.9 232.1 356.8 C 229.1 356.5 226.1 356.2 223.1 355.8 C 217.3 355.2 211.6 354.5 206.2 353.9 C 195.3 352.5 185.3 351.1 176.1 349.7 C 172.4 349.1 171.2 348.8 173.1 349.1 C 175.0 349.4 179.8 350.2 189.5 351.5 C 205.4 353.7 216.6 355.0 222.7 355.6 C 219.5 355.2 208.0 353.9 195.9 352.3 C 183.8 350.6 171.5 348.7 163.2 347.2 C 154.9 345.7 150.3 344.7 151.9 345.0 C 153.4 345.3 159.9 347.0 183.7 350.5 C 195.6 352.2 210.0 354.1 226.8 355.9 C 228.9 356.1 231.0 356.3 233.2 356.6 C 234.2 356.7 235.7 356.8 236.2 356.9 C 236.7 356.9 237.2 357.0 237.6 357.0 C 239.6 357.2 241.5 357.4 243.5 357.6 C 247.4 358.0 251.5 358.4 255.5 358.7 C 271.6 360.2 288.1 361.4 301.2 362.3 C 314.3 363.2 323.9 363.7 326.2 363.8 C 328.4 363.9 323.1 363.7 307.6 362.6 C 276.6 360.5 256.9 358.6 248.2 357.7 C 239.5 356.8 241.4 357.0 257.0 358.4 C 272.6 359.8 306.8 362.3 334.2 363.8 C 361.7 365.3 381.1 366.0 362.0 365.1 C 342.9 364.2 313.9 362.5 286.1 360.4 C 272.2 359.3 258.6 358.1 246.3 356.9 C 243.3 356.6 240.3 356.3 237.4 356.0 C 236.7 356.0 235.8 355.9 234.2 355.7 C 232.6 355.5 230.9 355.4 229.4 355.2 C 226.2 354.9 223.2 354.5 220.3 354.2 C 208.6 352.9 198.5 351.6 189.9 350.4 C 172.7 348.0 168.6 347.1 168.2 347.1 C 167.8 347.1 171.9 347.9 175.3 348.5 C 178.8 349.2 181.4 349.6 177.2 349.1 C 173.1 348.5 161.1 346.8 144.2 342.9 C 127.4 339.1 122.9 336.9 120.4 335.9 C 117.9 334.8 118.2 334.9 119.3 335.3 C 121.4 336.2 128.5 338.6 124.3 337.1 C 120.9 336.0 117.5 334.5 114.9 333.1 C 112.3 331.6 110.8 330.0 110.7 329.8 C 110.6 329.6 110.2 331.0 111.0 330.1 C 111.8 329.1 114.7 327.0 119.4 325.0 C 126.0 322.2 137.7 318.8 152.2 315.9 C 166.8 312.9 184.1 310.3 196.8 308.6 C 196.3 308.7 188.4 309.8 178.9 311.3 C 169.4 312.7 158.5 314.7 150.2 316.4 C 141.9 318.2 136.0 319.8 133.6 320.5 C 131.2 321.2 131.5 321.0 138.4 319.3 C 155.2 315.0 180.2 310.7 209.7 307.1 C 217.0 306.2 224.7 305.4 232.4 304.6 C 234.4 304.4 236.2 304.2 237.0 304.1 C 237.9 304.0 238.7 303.9 239.6 303.8 C 241.3 303.7 242.9 303.5 244.6 303.3 C 251.1 302.7 257.3 302.1 262.9 301.6 C 285.1 299.7 296.5 298.9 281.3 299.9 C 322.3 296.8 355.9 295.1 384.8 293.9 C 429.8 292.3 485.0 291.3 491.1 291.3 C 494.7 291.3 528.9 290.7 568.5 290.8 C 608.1 290.9 652.4 291.9 676.1 293.0 C 677.9 293.0 700.0 293.6 721.9 294.5 C 743.8 295.3 765.4 296.4 768.7 296.5 C 806.2 298.8 820.7 300.2 835.2 301.4 C 842.4 302.1 849.5 302.7 858.7 303.6 C 861.0 303.9 863.4 304.1 865.9 304.4 C 867.2 304.5 871.2 304.9 874.3 305.2 C 877.3 305.6 880.4 305.9 883.5 306.3 C 896.1 307.7 909.4 309.4 922.9 311.4 C 945.4 314.9 958.9 317.9 968.2 320.5 C 977.5 323.0 982.5 325.0 985.6 326.6 C 992.0 329.6 991.6 330.5 991.6 330.6 C 991.7 330.8 991.8 329.4 991.6 329.8 C 991.4 330.1 990.3 331.2 988.7 332.2 C 985.6 334.2 981.2 335.9 977.0 337.4 C 972.7 338.9 968.6 340.2 963.4 341.6 C 958.2 343.0 952.0 344.6 942.1 346.7 C 936.1 347.9 927.8 349.4 919.6 350.7 C 911.3 352.1 903.2 353.3 898.9 354.0 C 882.1 357.1 872.7 359.3 878.7 360.2 C 878.7 360.2 878.7 360.2 878.7 360.2 Z M 741.0 371.5 C 752.8 371.0 773.8 369.8 785.7 369.1 C 772.1 370.2 754.8 371.1 736.7 371.9 C 738.1 371.8 739.5 371.6 741.0 371.5 C 741.0 371.5 741.0 371.5 741.0 371.5 Z M 646.1 371.8 C 654.5 371.6 664.7 371.6 674.0 371.2 C 682.9 371.0 692.0 370.7 705.2 370.1 C 704.1 370.1 682.2 370.8 665.0 371.2 C 665.0 371.2 665.0 371.1 665.0 371.1 C 673.3 370.8 683.2 370.4 694.8 370.0 C 698.8 369.9 702.7 369.8 706.7 369.6 C 707.1 369.7 700.9 370.0 698.5 370.1 C 701.6 370.1 711.8 369.8 724.8 369.3 C 726.4 369.3 728.0 369.2 729.6 369.2 C 731.4 369.3 721.6 369.8 732.5 369.3 C 724.8 369.8 704.6 370.5 691.8 370.9 C 706.1 370.1 651.6 372.0 638.0 372.1 C 640.6 372.0 643.3 371.9 646.1 371.8 Z M 538.7 379.6 C 531.1 379.6 523.5 379.5 515.7 379.5 C 526.9 379.6 535.6 379.6 543.5 379.6 C 541.9 379.6 540.3 379.6 538.7 379.6 Z M 237.5 292.3 C 236.4 292.4 235.6 292.5 233.0 292.8 C 230.3 293.0 227.6 293.3 224.9 293.7 C 219.4 294.3 213.8 294.9 208.3 295.6 C 197.2 297.0 186.2 298.5 176.0 300.1 C 155.5 303.4 138.5 307.0 126.7 310.5 C 114.9 314.1 108.3 317.5 104.5 320.8 C 100.7 324.0 99.8 327.6 99.7 328.3 C 98.8 333.0 101.7 337.4 105.5 340.4 C 102.5 338.0 99.9 335.1 99.5 331.1 C 99.1 327.1 101.3 323.5 104.2 321.0 C 109.8 316.0 119.1 312.5 132.1 308.9 C 145.1 305.4 161.8 302.2 180.6 299.3 C 190.0 297.9 199.9 296.5 210.0 295.3 C 215.1 294.7 220.2 294.1 225.4 293.5 C 227.9 293.3 230.6 293.0 233.1 292.7 C 235.7 292.4 236.4 292.4 237.5 292.3 C 237.5 292.3 237.5 292.3 237.5 292.3 Z M 110.0 330.1 C 110.1 330.3 109.9 329.9 109.9 330.1 C 109.9 330.2 109.8 330.3 110.2 329.8 C 110.5 329.2 111.5 328.3 112.8 327.4 C 115.4 325.7 119.2 324.0 121.9 323.0 C 124.7 321.9 126.3 321.4 125.7 321.6 C 125.1 321.7 122.3 322.6 118.5 324.3 C 115.2 325.7 112.0 327.6 110.6 328.9 C 109.3 330.2 109.6 330.0 109.6 330.1 C 109.7 330.2 110.4 331.3 111.1 331.9 C 111.7 332.4 111.8 332.5 111.0 331.8 C 109.9 330.9 109.6 330.3 109.6 330.2 C 109.5 330.0 109.4 330.3 109.6 329.9 C 110.1 329.1 113.0 326.4 118.8 323.9 C 127.8 320.1 142.4 316.4 162.8 312.9 C 140.9 316.9 125.9 321.2 117.6 325.0 C 113.4 326.9 111.1 328.8 110.3 329.7 C 109.6 330.7 109.9 329.8 110.0 330.1 C 110.0 330.1 110.0 330.1 110.0 330.1 Z M 190.2 308.9 C 171.0 311.6 151.8 314.9 137.8 318.5 C 149.9 315.4 165.7 312.3 185.8 309.4 C 187.2 309.2 188.7 309.0 190.2 308.9 Z M 216.6 305.7 C 194.2 308.3 176.0 311.1 167.7 312.6 C 163.6 313.3 161.6 313.6 162.7 313.4 C 163.7 313.2 167.5 312.5 176.5 311.0 C 184.6 309.7 193.4 308.5 203.2 307.2 C 207.5 306.7 211.9 306.2 216.6 305.7 Z M 240.4 303.3 C 240.2 303.2 239.3 303.3 237.4 303.5 C 235.6 303.6 228.8 304.3 221.2 305.2 C 225.1 304.7 229.7 304.2 234.5 303.7 C 237.0 303.5 237.6 303.4 238.7 303.3 C 239.9 303.2 241.1 303.0 242.3 302.9 C 247.1 302.5 252.1 302.0 256.8 301.6 C 266.0 300.7 273.5 300.1 272.8 300.3 C 262.4 301.2 251.3 302.2 240.4 303.3 C 240.4 303.3 240.4 303.3 240.4 303.3 Z M 261.7 289.7 C 251.7 290.6 243.1 291.3 258.8 289.9 C 264.8 289.3 270.9 288.8 277.3 288.3 C 272.0 288.7 266.9 289.2 261.7 289.7 Z M 520.3 370.4 C 515.1 370.4 495.1 370.2 483.6 370.0 C 482.4 370.5 527.7 370.7 520.3 370.4 C 520.3 370.4 520.3 370.4 520.3 370.4 Z M 595.3 370.1 C 590.2 370.1 570.2 370.3 558.4 370.4 C 557.2 370.9 602.6 370.2 595.3 370.1 C 595.3 370.1 595.3 370.1 595.3 370.1 Z M 676.2 293.0 C 676.2 293.0 676.1 293.0 676.1 293.0 C 676.1 293.0 676.2 293.0 676.2 293.0 C 676.2 293.0 676.2 293.0 676.2 293.0 Z M 676.2 293.0 " fill="#FF6762"></path></g></svg>