<?xml version="1.0" encoding="UTF-8" standalone="no"?><svg xmlns="http://www.w3.org/2000/svg" xmlns:xlink="http://www.w3.org/1999/xlink" clip-rule="evenodd" stroke-miterlimit="10" viewBox="0 0 804 91"><desc>SVG generated by Keynote</desc><defs></defs><g transform="matrix(1.00, 0.00, -0.00, -1.00, 0.0, 91.0)"><path d="M 550.5 82.9 C 553.8 82.8 568.1 82.3 568.2 82.1 C 562.9 82.3 551.5 82.7 550.5 82.9 C 550.5 82.9 550.5 82.9 550.5 82.9 Z M 521.2 84.0 C 526.5 83.9 538.2 83.5 541.8 83.2 C 535.7 83.5 523.1 83.7 521.2 84.0 C 521.2 84.0 521.2 84.0 521.2 84.0 Z M 565.7 81.8 C 573.3 81.4 587.2 80.9 590.5 80.5 C 583.1 81.0 569.2 81.5 565.7 81.8 C 565.7 81.8 565.7 81.8 565.7 81.8 Z M 152.9 79.9 C 155.8 80.3 168.6 81.2 168.6 81.0 C 163.9 80.7 153.8 79.9 152.9 79.9 C 152.9 79.9 152.9 79.9 152.9 79.9 Z M 227.4 84.0 C 232.6 84.4 243.9 84.8 247.5 84.8 C 241.4 84.6 229.3 84.0 227.4 84.0 C 227.4 84.0 227.4 84.0 227.4 84.0 Z M 274.0 86.0 C 285.1 86.3 297.2 86.6 294.9 86.4 C 291.3 86.4 275.2 85.8 274.0 86.0 C 274.0 86.0 274.0 86.0 274.0 86.0 Z M 556.2 74.6 C 544.7 75.1 536.1 75.3 528.2 75.6 C 488.1 76.9 548.6 75.2 556.2 74.6 C 556.2 74.6 556.2 74.6 556.2 74.6 Z M 359.8 87.2 C 351.5 87.1 344.9 87.0 340.9 87.1 C 348.6 87.2 359.4 87.3 359.8 87.2 C 359.8 87.2 359.8 87.2 359.8 87.2 Z M 431.7 87.1 C 433.6 87.2 476.1 86.6 499.2 85.9 C 479.5 86.4 429.8 87.0 431.7 87.1 C 431.7 87.1 431.7 87.1 431.7 87.1 Z M 459.6 77.1 C 432.2 77.6 387.9 77.7 367.9 77.6 C 348.1 77.5 403.6 78.2 454.2 77.5 C 505.0 76.8 463.2 77.1 483.7 76.6 C 504.0 76.1 464.1 76.8 443.5 77.1 C 423.0 77.4 457.1 77.0 459.6 77.1 C 459.6 77.1 459.6 77.1 459.6 77.1 Z M 460.8 76.4 C 470.7 76.3 479.3 76.1 484.9 75.9 C 474.7 76.0 464.9 76.1 460.8 76.4 C 460.8 76.4 460.8 76.4 460.8 76.4 Z M 690.3 69.7 C 693.3 70.4 705.0 70.0 719.1 69.0 C 733.2 67.9 749.3 66.2 762.1 64.0 C 768.5 62.9 774.1 61.7 779.0 60.5 C 787.6 58.1 793.5 55.9 797.3 51.9 C 799.3 49.9 800.7 46.7 800.0 43.6 C 799.4 40.5 797.4 38.3 795.1 36.5 C 785.9 29.4 767.0 24.8 735.7 20.0 C 723.3 18.1 709.1 16.3 692.5 14.6 C 689.4 14.2 686.2 13.9 682.9 13.6 C 679.7 13.3 678.7 13.2 677.3 13.0 C 674.4 12.8 671.5 12.5 668.6 12.2 C 662.7 11.7 656.6 11.2 650.5 10.7 C 638.2 9.7 625.4 8.8 612.1 8.0 C 603.4 7.5 594.4 7.0 585.0 6.5 C 552.2 4.6 518.8 3.8 483.8 3.0 C 466.4 2.7 448.4 2.3 429.8 2.0 C 420.6 1.8 380.8 1.8 366.7 2.1 C 380.3 1.6 315.5 2.6 318.4 2.6 C 311.3 2.9 303.9 3.1 296.5 3.3 C 289.1 3.6 298.4 3.4 307.8 3.2 C 299.5 3.5 291.2 3.7 282.9 4.0 C 274.1 4.3 265.5 4.5 256.6 4.9 C 227.8 5.8 198.2 7.4 174.0 9.2 C 165.8 9.8 155.9 10.5 145.3 11.4 C 140.0 11.8 134.6 12.3 129.0 12.8 C 127.6 12.9 126.3 13.0 124.8 13.2 C 124.1 13.2 123.5 13.3 121.9 13.4 C 120.3 13.6 118.7 13.7 117.1 13.9 C 110.8 14.5 104.7 15.2 98.7 15.9 C 75.1 18.5 55.2 21.6 40.3 24.8 C 25.4 28.1 15.7 31.2 9.6 35.2 C 6.5 37.3 4.0 39.7 3.1 43.4 C 2.3 47.1 4.1 50.7 6.2 52.8 C 10.2 57.0 15.7 59.0 20.8 60.7 C 25.9 62.5 30.5 63.6 32.4 64.1 C 34.4 64.6 33.5 64.4 29.6 63.3 C 21.0 61.0 17.4 59.4 15.4 58.5 C 13.3 57.5 13.0 57.3 13.4 57.4 C 14.2 57.8 18.8 59.7 22.7 61.0 C 27.4 62.5 34.5 64.4 44.9 66.5 C 44.5 66.5 43.7 66.4 42.2 66.1 C 51.7 68.2 65.0 70.5 82.9 72.9 C 91.9 74.1 102.0 75.3 113.1 76.4 C 115.9 76.7 118.7 76.9 121.6 77.2 C 124.5 77.5 125.2 77.5 126.5 77.7 C 129.0 77.9 131.6 78.1 134.2 78.3 C 130.3 77.9 125.5 77.5 123.7 77.2 C 134.1 78.2 125.8 77.2 132.7 77.8 C 152.0 79.4 161.6 80.1 138.9 78.2 C 160.0 79.8 174.3 80.5 197.4 81.6 C 206.1 82.1 201.4 81.8 198.8 81.8 C 214.1 82.8 250.9 84.3 254.4 84.6 C 256.1 84.7 230.7 83.7 208.4 82.6 C 186.1 81.4 166.7 80.0 175.2 80.7 C 182.1 81.2 196.7 82.0 202.3 82.4 C 189.8 81.7 174.9 80.8 167.3 80.3 C 175.5 80.9 187.4 81.7 194.1 82.1 C 185.8 81.6 180.2 81.3 177.8 81.2 C 189.6 82.0 198.7 82.6 213.5 83.3 C 220.1 83.6 207.8 82.9 221.9 83.6 C 224.5 83.6 212.7 83.1 213.5 83.0 C 224.8 83.6 248.0 84.6 253.8 84.7 C 259.5 84.9 239.6 84.2 239.2 84.1 C 284.1 86.0 338.9 86.9 355.8 87.0 C 372.9 87.1 356.9 87.0 349.7 86.8 C 369.5 87.0 384.5 87.1 408.2 87.1 C 423.4 87.0 417.3 87.0 411.6 87.0 C 415.6 86.9 419.2 86.9 421.5 86.9 C 423.2 86.8 427.5 86.8 430.5 86.7 C 421.2 86.8 403.9 86.8 396.3 86.8 C 410.2 86.7 443.3 86.6 455.3 86.3 C 436.2 86.4 415.6 86.6 394.1 86.5 C 436.0 86.5 479.0 86.2 511.6 85.0 C 505.8 85.1 503.2 85.1 498.4 85.1 C 510.9 84.9 529.2 84.5 540.1 83.9 C 546.1 83.7 557.9 83.1 569.5 82.6 C 549.2 83.4 535.2 83.9 520.4 84.4 C 520.7 84.3 522.1 84.3 524.6 84.2 C 491.6 84.9 472.0 85.7 447.7 86.1 C 445.8 86.1 444.0 86.1 442.0 86.1 C 434.2 86.0 461.9 85.7 464.6 85.6 C 428.8 86.1 389.2 86.1 371.4 85.8 C 414.3 86.1 452.4 85.8 484.1 84.9 C 475.9 84.9 443.7 85.5 428.3 85.5 C 498.5 84.9 504.8 84.1 510.4 83.9 C 505.1 84.0 499.9 84.1 494.4 84.3 C 495.8 84.2 497.1 84.1 498.5 84.1 C 528.7 83.3 562.7 81.9 561.0 81.9 C 559.7 82.0 533.3 83.0 504.2 83.8 C 507.2 83.6 510.3 83.4 513.4 83.3 C 547.2 82.3 584.1 80.4 614.6 78.6 C 609.6 78.8 612.2 78.6 618.5 78.1 C 609.0 78.6 595.1 79.4 584.4 79.8 C 588.1 79.6 594.6 79.3 596.7 79.1 C 591.4 79.3 583.0 79.8 580.3 79.8 C 595.4 79.0 611.2 78.1 626.2 77.0 C 629.2 76.7 619.7 77.4 620.5 77.3 C 634.8 76.3 653.9 74.9 663.5 74.0 C 652.4 74.8 629.6 76.5 622.3 76.9 C 627.1 76.5 631.7 76.2 636.5 75.8 C 646.0 75.1 650.5 74.7 639.9 75.4 C 634.2 75.8 634.3 75.7 635.7 75.6 C 642.2 75.0 664.1 73.3 663.4 73.1 C 658.0 73.6 635.9 75.3 630.1 75.5 C 634.4 75.0 645.9 74.3 647.0 74.0 C 622.4 76.0 622.8 75.7 616.4 76.2 C 619.2 76.1 626.5 75.6 626.2 75.7 C 610.5 76.7 594.2 77.6 576.9 78.5 C 576.9 78.5 576.9 78.5 576.9 78.5 C 576.9 78.5 576.9 78.5 576.9 78.5 C 576.9 78.5 576.9 78.5 576.9 78.5 C 578.4 78.2 577.9 78.1 576.3 78.1 C 583.7 77.7 591.3 77.3 604.6 76.6 C 601.0 76.5 588.7 77.3 577.1 77.9 C 577.2 77.8 577.3 77.8 577.4 77.7 C 596.2 76.9 623.8 75.2 641.3 73.8 C 633.3 74.3 602.9 76.3 580.9 77.4 C 581.6 77.3 582.3 77.2 583.0 77.1 C 555.5 78.5 521.6 79.5 488.3 80.3 C 504.3 79.7 523.0 79.4 543.0 78.6 C 552.2 78.2 560.6 77.8 569.3 77.3 C 581.7 76.8 605.9 75.6 626.8 74.2 C 647.7 72.9 665.3 71.3 668.9 71.0 C 672.8 70.5 659.0 71.8 643.2 72.9 C 627.5 74.0 609.6 75.1 609.4 75.0 C 609.0 75.0 641.4 72.8 626.2 73.9 C 618.3 74.4 600.6 75.5 587.3 76.2 C 586.9 76.1 586.4 75.9 585.9 75.8 C 597.5 75.2 610.8 74.4 611.4 74.6 C 616.9 74.3 628.4 73.6 630.0 73.4 C 628.2 73.5 625.4 73.7 625.4 73.6 C 628.1 73.4 631.9 73.2 632.3 73.1 C 619.2 74.0 600.5 75.0 585.2 75.8 C 583.9 75.7 582.6 75.7 581.3 75.7 C 581.6 75.7 593.5 75.0 603.5 74.4 C 614.0 73.8 592.2 75.0 574.2 75.8 C 571.3 75.9 568.5 76.0 565.5 76.0 C 571.8 75.7 579.0 75.4 587.4 75.0 C 597.2 74.4 596.9 74.2 606.4 73.6 C 588.9 74.6 566.8 75.6 548.6 76.3 C 542.0 76.4 535.3 76.5 528.3 76.6 C 543.7 76.1 557.6 75.4 565.7 74.9 C 572.3 74.7 579.1 74.4 581.5 74.2 C 575.4 74.4 591.1 73.6 588.7 73.5 C 580.2 74.1 562.9 74.8 556.5 75.3 C 542.7 75.9 527.2 76.4 513.3 76.8 C 511.6 76.8 509.8 76.8 508.0 76.9 C 519.8 76.5 530.9 76.2 543.2 75.6 C 537.6 75.6 503.3 76.7 477.7 77.3 C 425.7 78.1 371.4 78.9 319.6 78.0 C 317.4 78.0 314.4 77.9 311.1 77.8 C 307.4 77.6 303.6 77.5 299.8 77.3 C 312.1 77.6 323.2 77.8 332.4 77.9 C 295.5 77.1 385.5 78.3 391.4 78.1 C 361.1 77.9 317.6 77.4 274.9 76.0 C 232.2 74.6 191.0 72.4 161.9 70.1 C 175.9 71.1 180.5 71.4 165.4 70.3 C 161.3 70.0 157.3 69.6 153.2 69.3 C 211.3 73.6 282.9 76.6 338.9 77.1 C 305.6 76.5 256.7 75.0 243.6 74.3 C 252.8 74.6 266.4 75.2 268.3 75.1 C 260.1 74.8 242.4 74.1 225.2 73.3 C 208.1 72.5 191.7 71.6 184.4 71.0 C 220.2 73.2 266.1 75.1 311.3 76.1 C 356.5 77.1 400.4 77.2 430.9 76.8 C 384.7 77.2 329.9 76.6 279.4 75.1 C 228.9 73.5 183.4 70.9 151.2 68.5 C 162.4 69.4 162.6 69.5 156.6 69.1 C 146.5 68.4 136.8 67.6 127.3 66.8 C 126.1 66.7 125.5 66.6 122.8 66.3 C 120.1 66.1 117.4 65.8 114.8 65.6 C 109.6 65.0 104.6 64.5 99.7 64.0 C 90.0 62.9 81.1 61.7 72.9 60.6 C 69.6 60.1 68.5 59.9 70.2 60.1 C 71.9 60.3 76.2 61.0 84.8 62.1 C 99.0 63.8 109.0 64.9 114.4 65.3 C 111.6 65.0 101.3 64.0 90.6 62.6 C 79.8 61.3 68.8 59.7 61.4 58.5 C 54.0 57.2 49.9 56.4 51.2 56.7 C 52.6 56.9 58.5 58.3 79.7 61.2 C 90.3 62.6 103.1 64.1 118.1 65.6 C 119.9 65.7 121.9 65.9 123.8 66.1 C 125.7 66.3 125.8 66.3 126.7 66.4 C 128.4 66.5 130.1 66.7 131.8 66.8 C 135.3 67.1 138.8 67.5 142.4 67.7 C 156.6 68.9 171.1 69.9 182.6 70.6 C 205.7 72.0 215.5 72.6 188.3 70.8 C 161.0 69.1 143.7 67.6 136.0 66.9 C 128.3 66.1 130.0 66.3 143.7 67.4 C 157.4 68.5 187.5 70.5 211.7 71.7 C 235.9 72.9 252.9 73.5 236.1 72.7 C 219.3 72.0 193.8 70.6 169.3 68.9 C 157.1 68.0 145.1 67.1 134.3 66.1 C 131.6 65.9 129.0 65.6 126.5 65.4 C 123.9 65.2 117.5 64.5 112.3 64.0 C 101.9 62.9 92.9 61.9 85.2 60.9 C 69.8 58.9 66.2 58.2 65.8 58.3 C 65.5 58.3 69.1 58.9 72.2 59.5 C 75.3 60.0 77.6 60.4 73.9 59.9 C 70.2 59.4 59.5 58.1 44.4 54.9 C 29.3 51.8 25.3 50.0 23.1 49.2 C 20.9 48.3 21.1 48.4 22.1 48.7 C 24.0 49.4 30.3 51.4 26.6 50.2 C 23.6 49.2 20.5 48.1 18.2 46.9 C 15.8 45.7 14.5 44.3 14.6 44.5 C 14.6 44.5 14.9 45.2 14.8 45.8 C 14.7 46.4 14.5 46.6 14.7 46.3 C 15.2 45.8 17.6 44.1 21.7 42.5 C 27.4 40.2 37.6 37.4 50.5 35.0 C 63.3 32.6 78.6 30.4 89.8 29.1 C 89.4 29.2 82.4 30.0 74.0 31.3 C 65.6 32.5 56.0 34.1 48.6 35.5 C 41.3 37.0 36.2 38.2 34.1 38.8 C 31.9 39.4 32.2 39.2 38.3 37.8 C 53.0 34.3 75.1 30.8 101.1 27.9 C 107.7 27.2 114.4 26.5 121.3 25.8 C 123.0 25.6 124.6 25.5 125.3 25.4 C 126.1 25.3 126.8 25.3 127.6 25.2 C 129.0 25.1 130.5 24.9 131.9 24.8 C 137.7 24.3 143.2 23.8 148.1 23.4 C 167.6 21.8 177.6 21.2 164.2 22.0 C 200.2 19.4 229.8 18.1 255.2 17.1 C 294.7 15.8 343.2 15.0 348.5 15.0 C 351.7 15.0 381.8 14.5 416.6 14.6 C 451.4 14.7 490.3 15.5 511.1 16.4 C 512.7 16.4 532.2 16.9 551.5 17.6 C 570.7 18.3 589.7 19.1 592.7 19.2 C 625.6 21.0 638.4 22.2 651.1 23.2 C 657.5 23.8 663.8 24.3 671.8 25.0 C 673.8 25.2 675.9 25.4 678.2 25.6 C 680.5 25.8 687.2 26.5 692.8 27.1 C 704.0 28.2 715.9 29.6 727.9 31.3 C 748.0 34.1 760.1 36.6 768.4 38.6 C 776.7 40.7 781.1 42.3 784.0 43.6 C 789.6 46.0 789.2 46.7 789.2 46.6 C 789.1 46.4 789.2 44.3 789.2 44.3 C 789.2 44.3 788.3 45.2 787.0 46.0 C 784.4 47.5 780.6 49.0 776.9 50.2 C 773.2 51.4 769.5 52.4 765.0 53.6 C 760.4 54.8 755.0 56.1 746.3 57.8 C 741.0 58.9 733.7 60.1 726.4 61.2 C 719.1 62.3 711.9 63.3 708.2 64.0 C 693.3 66.7 685.0 68.7 690.3 69.7 C 690.3 69.7 690.3 69.7 690.3 69.7 Z M 569.2 79.1 C 579.6 78.7 598.1 77.7 608.6 77.2 C 596.6 78.1 581.4 78.8 565.5 79.5 C 566.7 79.3 568.0 79.2 569.2 79.1 C 569.2 79.1 569.2 79.1 569.2 79.1 Z M 485.8 78.8 C 493.3 78.7 502.2 78.6 510.4 78.4 C 518.2 78.2 526.2 78.0 537.8 77.5 C 536.8 77.4 517.6 77.9 502.4 78.3 C 502.4 78.3 502.4 78.2 502.4 78.2 C 509.8 77.9 518.5 77.6 528.7 77.3 C 532.1 77.2 535.6 77.1 539.1 77.0 C 539.4 77.1 534.0 77.3 531.9 77.4 C 534.6 77.4 543.6 77.2 555.0 76.8 C 556.4 76.8 557.8 76.7 559.2 76.7 C 560.8 76.8 552.2 77.2 561.8 76.8 C 555.0 77.3 537.3 77.8 526.0 78.2 C 538.6 77.5 490.7 79.0 478.7 79.1 C 481.1 79.0 483.4 78.9 485.8 78.8 Z M 391.5 86.4 C 384.8 86.4 378.1 86.4 371.2 86.3 C 381.1 86.4 388.7 86.4 395.7 86.4 C 394.3 86.4 392.9 86.4 391.5 86.4 Z M 125.7 13.6 C 124.7 13.7 124.0 13.8 121.7 14.0 C 119.4 14.3 116.9 14.5 114.5 14.8 C 109.7 15.3 104.8 15.8 99.9 16.4 C 90.1 17.5 80.4 18.8 71.3 20.1 C 53.3 22.7 38.2 25.7 27.8 28.6 C 17.5 31.5 11.6 34.3 8.2 37.1 C 4.7 39.9 3.8 43.3 3.8 44.0 C 3.0 48.5 6.0 52.4 9.5 54.8 C 6.7 52.9 4.2 50.4 3.6 46.6 C 3.1 42.9 5.3 39.5 7.9 37.3 C 13.0 33.0 21.1 30.2 32.6 27.3 C 44.1 24.4 58.8 21.7 75.4 19.4 C 83.7 18.2 92.4 17.1 101.4 16.1 C 105.9 15.6 110.4 15.1 115.0 14.7 C 117.2 14.4 119.5 14.2 121.8 14.0 C 124.1 13.8 124.7 13.7 125.7 13.6 C 125.7 13.6 125.7 13.6 125.7 13.6 Z M 14.0 44.8 C 13.9 44.8 13.9 44.4 14.0 45.2 C 14.1 45.7 13.7 46.2 13.9 45.9 C 14.1 45.6 14.9 44.9 16.0 44.2 C 18.2 42.8 21.5 41.5 23.9 40.6 C 26.2 39.7 27.6 39.3 27.1 39.5 C 26.6 39.6 24.1 40.3 20.8 41.7 C 18.0 42.8 15.2 44.4 14.2 45.3 C 13.2 46.2 13.8 45.4 13.7 45.1 C 13.6 44.8 14.2 45.7 14.7 46.1 C 15.3 46.6 15.4 46.6 14.6 46.1 C 13.7 45.4 13.5 44.9 13.6 45.1 C 13.6 45.3 13.5 46.0 13.5 45.8 C 13.7 45.6 16.1 43.4 21.1 41.3 C 28.9 38.3 41.8 35.3 59.8 32.5 C 40.4 35.7 27.2 39.2 20.1 42.3 C 16.5 43.8 14.5 45.4 14.1 45.9 C 13.6 46.4 14.0 44.8 14.0 44.8 C 14.0 44.8 14.0 44.8 14.0 44.8 Z M 83.9 29.2 C 67.0 31.4 50.1 34.1 37.8 37.0 C 48.4 34.5 62.3 32.0 80.1 29.6 C 81.3 29.5 82.6 29.3 83.9 29.2 Z M 107.3 26.6 C 87.4 28.8 71.4 31.1 64.1 32.2 C 60.4 32.8 58.8 33.1 59.7 32.9 C 60.6 32.8 64.0 32.2 71.9 31.0 C 79.0 29.9 86.8 28.9 95.4 27.8 C 99.2 27.4 103.1 27.0 107.3 26.6 Z M 128.3 24.7 C 128.1 24.6 127.3 24.7 125.7 24.8 C 124.0 24.9 118.1 25.5 111.3 26.2 C 114.8 25.8 118.8 25.4 123.1 25.0 C 125.3 24.8 125.8 24.8 126.8 24.7 C 127.8 24.6 128.9 24.5 129.9 24.4 C 134.1 24.0 138.6 23.6 142.7 23.2 C 150.8 22.6 157.4 22.1 156.8 22.2 C 147.6 22.9 137.9 23.8 128.3 24.7 C 128.3 24.7 128.3 24.7 128.3 24.7 Z M 146.9 11.5 C 138.2 12.2 130.6 12.8 144.4 11.6 C 149.7 11.2 155.0 10.7 160.6 10.3 C 156.0 10.7 151.5 11.1 146.9 11.5 Z M 375.3 77.2 C 370.7 77.2 353.2 77.1 343.1 77.0 C 342.0 77.5 381.8 77.5 375.3 77.2 C 375.3 77.2 375.3 77.2 375.3 77.2 Z M 441.2 76.9 C 436.7 77.0 419.1 77.1 408.8 77.2 C 407.7 77.7 447.6 77.1 441.2 76.9 C 441.2 76.9 441.2 76.9 441.2 76.9 Z M 511.3 16.4 C 511.2 16.4 511.2 16.4 511.1 16.4 C 511.2 16.4 511.2 16.4 511.3 16.4 C 511.3 16.4 511.3 16.4 511.3 16.4 Z M 511.3 16.4 " fill="#FF6762"></path></g></svg>