<?xml version="1.0" encoding="UTF-8" standalone="no"?><svg xmlns="http://www.w3.org/2000/svg" xmlns:xlink="http://www.w3.org/1999/xlink" clip-rule="evenodd" stroke-miterlimit="10" viewBox="0 0 1024 768"><desc>SVG generated by Keynote</desc><defs></defs><g transform="matrix(1.00, 0.00, -0.00, -1.00, 0.0, 768.0)"><path d="M 0.0 768.0 L 1024.0 768.0 L 1024.0 0.0 L 0.0 0.0 Z M 0.0 768.0 " fill="#FEA249"></path><g><clipPath id="clip0x600000aa7920"><path d="M 138.0 470.8 L 886.0 470.8 L 886.0 297.2 L 138.0 297.2 Z M 138.0 470.8 "></path></clipPath><g clip-path="url(#clip0x600000aa7920)"><path d="M 138.0 470.8 L 886.0 470.8 L 886.0 293.2 L 138.0 293.2 Z M 138.0 470.8 " fill="#E6F5CE"></path></g></g><text xml:space="preserve" font-family="YanoneKaffeesatz-Regular,Yanone Kaffeesatz" font-size="150.0" fill="#FEA249" transform="matrix(1.00, 0.00, -0.00, -1.00, 138.5, 327.2)">P</text><text xml:space="preserve" font-family="YanoneKaffeesatz-Regular,Yanone Kaffeesatz" font-size="150.0" fill="#FEA249" transform="matrix(1.00, 0.00, -0.00, -1.00, 190.8, 327.2)">a</text><text xml:space="preserve" font-family="YanoneKaffeesatz-Regular,Yanone Kaffeesatz" font-size="150.0" fill="#FEA249" transform="matrix(1.00, 0.00, -0.00, -1.00, 243.9, 327.2)">s</text><text xml:space="preserve" font-family="YanoneKaffeesatz-Regular,Yanone Kaffeesatz" font-size="150.0" fill="#FEA249" transform="matrix(1.00, 0.00, -0.00, -1.00, 295.7, 327.2)">s</text><text xml:space="preserve" font-family="YanoneKaffeesatz-Regular,Yanone Kaffeesatz" font-size="150.0" fill="#FEA249" transform="matrix(1.00, 0.00, -0.00, -1.00, 347.4, 327.2)">a</text><text xml:space="preserve" font-family="YanoneKaffeesatz-Regular,Yanone Kaffeesatz" font-size="150.0" fill="#FEA249" transform="matrix(1.00, 0.00, -0.00, -1.00, 400.5, 327.2)">r</text><text xml:space="preserve" font-family="YanoneKaffeesatz-Regular,Yanone Kaffeesatz" font-size="150.0" fill="#FEA249" transform="matrix(1.00, 0.00, -0.00, -1.00, 440.0, 327.2)"> </text><text xml:space="preserve" font-family="YanoneKaffeesatz-Regular,Yanone Kaffeesatz" font-size="150.0" fill="#FEA249" transform="matrix(1.00, 0.00, -0.00, -1.00, 463.5, 327.2)">F</text><text xml:space="preserve" font-family="YanoneKaffeesatz-Regular,Yanone Kaffeesatz" font-size="150.0" fill="#FEA249" transform="matrix(1.00, 0.00, -0.00, -1.00, 506.1, 327.2)">e</text><text xml:space="preserve" font-family="YanoneKaffeesatz-Regular,Yanone Kaffeesatz" font-size="150.0" fill="#FEA249" transform="matrix(1.00, 0.00, -0.00, -1.00, 558.8, 327.2)">e</text><text xml:space="preserve" font-family="YanoneKaffeesatz-Regular,Yanone Kaffeesatz" font-size="150.0" fill="#FEA249" transform="matrix(1.00, 0.00, -0.00, -1.00, 612.9, 327.2)">d</text><text xml:space="preserve" font-family="YanoneKaffeesatz-Regular,Yanone Kaffeesatz" font-size="150.0" fill="#FEA249" transform="matrix(1.00, 0.00, -0.00, -1.00, 670.8, 327.2)">b</text><text xml:space="preserve" font-family="YanoneKaffeesatz-Regular,Yanone Kaffeesatz" font-size="150.0" fill="#FEA249" transform="matrix(1.00, 0.00, -0.00, -1.00, 728.3, 327.2)">a</text><text xml:space="preserve" font-family="YanoneKaffeesatz-Regular,Yanone Kaffeesatz" font-size="150.0" fill="#FEA249" transform="matrix(1.00, 0.00, -0.00, -1.00, 781.4, 327.2)">c</text><text xml:space="preserve" font-family="YanoneKaffeesatz-Regular,Yanone Kaffeesatz" font-size="150.0" fill="#FEA249" transform="matrix(1.00, 0.00, -0.00, -1.00, 828.4, 327.2)">k</text></g></svg>