<?xml version="1.0" encoding="UTF-8" standalone="no"?><svg xmlns="http://www.w3.org/2000/svg" xmlns:xlink="http://www.w3.org/1999/xlink" clip-rule="evenodd" stroke-miterlimit="10" viewBox="0 0 1024 768"><desc>SVG generated by Keynote</desc><defs></defs><g transform="matrix(1.00, 0.00, -0.00, -1.00, 0.0, 768.0)"><path d="M 0.0 768.0 L 1024.0 768.0 L 1024.0 0.0 L 0.0 0.0 Z M 0.0 768.0 " fill="#FF6762"></path><text xml:space="preserve" font-family="YanoneKaffeesatz-Bold,Yanone Kaffeesatz" font-weight="bold" font-size="120.0" fill="#FAD92C" transform="matrix(1.00, 0.00, -0.00, -1.00, 198.9, 338.7)">M</text><text xml:space="preserve" font-family="YanoneKaffeesatz-Bold,Yanone Kaffeesatz" font-weight="bold" font-size="120.0" fill="#FAD92C" transform="matrix(1.00, 0.00, -0.00, -1.00, 256.2, 338.7)">a</text><text xml:space="preserve" font-family="YanoneKaffeesatz-Bold,Yanone Kaffeesatz" font-weight="bold" font-size="120.0" fill="#FAD92C" transform="matrix(1.00, 0.00, -0.00, -1.00, 296.7, 338.7)">n</text><text xml:space="preserve" font-family="YanoneKaffeesatz-Bold,Yanone Kaffeesatz" font-weight="bold" font-size="120.0" fill="#FAD92C" transform="matrix(1.00, 0.00, -0.00, -1.00, 340.0, 338.7)">t</text><text xml:space="preserve" font-family="YanoneKaffeesatz-Bold,Yanone Kaffeesatz" font-weight="bold" font-size="120.0" fill="#FAD92C" transform="matrix(1.00, 0.00, -0.00, -1.00, 370.5, 338.7)">e</text><text xml:space="preserve" font-family="YanoneKaffeesatz-Bold,Yanone Kaffeesatz" font-weight="bold" font-size="120.0" fill="#FAD92C" transform="matrix(1.00, 0.00, -0.00, -1.00, 412.0, 338.7)">r</text><text xml:space="preserve" font-family="YanoneKaffeesatz-Bold,Yanone Kaffeesatz" font-weight="bold" font-size="120.0" fill="#FAD92C" transform="matrix(1.00, 0.00, -0.00, -1.00, 441.9, 338.7)"> </text><text xml:space="preserve" font-family="YanoneKaffeesatz-Bold,Yanone Kaffeesatz" font-weight="bold" font-size="120.0" fill="#FAD92C" transform="matrix(1.00, 0.00, -0.00, -1.00, 458.7, 338.7)">o</text><text xml:space="preserve" font-family="YanoneKaffeesatz-Bold,Yanone Kaffeesatz" font-weight="bold" font-size="120.0" fill="#FAD92C" transform="matrix(1.00, 0.00, -0.00, -1.00, 500.8, 338.7)"> </text><text xml:space="preserve" font-family="YanoneKaffeesatz-Bold,Yanone Kaffeesatz" font-weight="bold" font-size="120.0" fill="#FAD92C" transform="matrix(1.00, 0.00, -0.00, -1.00, 517.6, 338.7)">c</text><text xml:space="preserve" font-family="YanoneKaffeesatz-Bold,Yanone Kaffeesatz" font-weight="bold" font-size="120.0" fill="#FAD92C" transform="matrix(1.00, 0.00, -0.00, -1.00, 550.8, 338.7)">o</text><text xml:space="preserve" font-family="YanoneKaffeesatz-Bold,Yanone Kaffeesatz" font-weight="bold" font-size="120.0" fill="#FAD92C" transform="matrix(1.00, 0.00, -0.00, -1.00, 592.9, 338.7)">n</text><text xml:space="preserve" font-family="YanoneKaffeesatz-Bold,Yanone Kaffeesatz" font-weight="bold" font-size="120.0" fill="#FAD92C" transform="matrix(1.00, 0.00, -0.00, -1.00, 636.2, 338.7)">t</text><text xml:space="preserve" font-family="YanoneKaffeesatz-Bold,Yanone Kaffeesatz" font-weight="bold" font-size="120.0" fill="#FAD92C" transform="matrix(1.00, 0.00, -0.00, -1.00, 666.7, 338.7)">e</text><text xml:space="preserve" font-family="YanoneKaffeesatz-Bold,Yanone Kaffeesatz" font-weight="bold" font-size="120.0" fill="#FAD92C" transform="matrix(1.00, 0.00, -0.00, -1.00, 707.0, 338.7)">x</text><text xml:space="preserve" font-family="YanoneKaffeesatz-Bold,Yanone Kaffeesatz" font-weight="bold" font-size="120.0" fill="#FAD92C" transform="matrix(1.00, 0.00, -0.00, -1.00, 751.3, 338.7)">t</text><text xml:space="preserve" font-family="YanoneKaffeesatz-Bold,Yanone Kaffeesatz" font-weight="bold" font-size="120.0" fill="#FAD92C" transform="matrix(1.00, 0.00, -0.00, -1.00, 783.0, 338.7)">o</text></g></svg>